G04*
G04 #@! TF.GenerationSoftware,Altium Limited,Altium NEXUS,1.1.9 (86)*
G04*
G04 Layer_Color=12632256*
%FSLAX24Y24*%
%MOIN*%
G70*
G01*
G75*
%ADD43R,0.0591X0.0591*%
%ADD44C,0.0591*%
%ADD45C,0.1476*%
%ADD46C,0.0933*%
%ADD47C,0.0300*%
%ADD48C,0.0866*%
%ADD49C,0.0709*%
%ADD50R,0.0709X0.0709*%
%ADD51O,0.0787X0.0709*%
%ADD52O,0.0866X0.0709*%
%ADD53O,0.0866X0.0827*%
G04:AMPARAMS|DCode=54|XSize=78.7mil|YSize=70.9mil|CornerRadius=0mil|HoleSize=0mil|Usage=FLASHONLY|Rotation=180.000|XOffset=0mil|YOffset=0mil|HoleType=Round|Shape=Octagon|*
%AMOCTAGOND54*
4,1,8,-0.0394,0.0177,-0.0394,-0.0177,-0.0217,-0.0354,0.0217,-0.0354,0.0394,-0.0177,0.0394,0.0177,0.0217,0.0354,-0.0217,0.0354,-0.0394,0.0177,0.0*
%
%ADD54OCTAGOND54*%

%ADD55C,0.1575*%
D43*
X-11191Y11051D02*
D03*
X-11211Y8817D02*
D03*
X11467D02*
D03*
X11467Y11051D02*
D03*
D44*
X-11191Y10051D02*
D03*
X-11211Y7817D02*
D03*
X11467D02*
D03*
X11467Y10051D02*
D03*
D45*
X4469Y19449D02*
D03*
Y16782D02*
D03*
D46*
X7333Y13150D02*
D03*
X9183D02*
D03*
X11033D02*
D03*
D47*
X9732Y18280D02*
D03*
X10232Y17280D02*
D03*
X10732Y18280D02*
D03*
X9232Y17280D02*
D03*
X8732Y18280D02*
D03*
X10732Y15280D02*
D03*
X10232Y16280D02*
D03*
X8732Y15280D02*
D03*
X9232Y16280D02*
D03*
X9732Y15280D02*
D03*
D48*
X-9800Y12200D02*
D03*
Y13200D02*
D03*
X-9000Y1500D02*
D03*
X6000D02*
D03*
X-3000D02*
D03*
X3000Y6500D02*
D03*
Y19500D02*
D03*
Y18500D02*
D03*
D49*
X-8800Y12200D02*
D03*
Y13200D02*
D03*
X-7800Y12200D02*
D03*
Y13200D02*
D03*
X-6800Y12200D02*
D03*
Y13200D02*
D03*
X-6000Y1500D02*
D03*
X-7000D02*
D03*
X-8000D02*
D03*
X-9000Y10750D02*
D03*
X-8000D02*
D03*
X-7000D02*
D03*
X9000Y1500D02*
D03*
X8000D02*
D03*
X7000D02*
D03*
X6000Y10750D02*
D03*
X7000D02*
D03*
X8000D02*
D03*
D50*
X-6000D02*
D03*
X9000D02*
D03*
D51*
X-3000Y19500D02*
D03*
Y17500D02*
D03*
Y16500D02*
D03*
Y15500D02*
D03*
Y14500D02*
D03*
Y12500D02*
D03*
Y10500D02*
D03*
Y8500D02*
D03*
Y6500D02*
D03*
Y4500D02*
D03*
Y2500D02*
D03*
Y5500D02*
D03*
Y3500D02*
D03*
Y500D02*
D03*
Y7500D02*
D03*
Y9500D02*
D03*
Y11500D02*
D03*
Y13500D02*
D03*
Y18500D02*
D03*
X3000Y1500D02*
D03*
Y10500D02*
D03*
Y12500D02*
D03*
Y16500D02*
D03*
Y14500D02*
D03*
Y17500D02*
D03*
Y15500D02*
D03*
Y13500D02*
D03*
Y11500D02*
D03*
Y9500D02*
D03*
Y5500D02*
D03*
Y4500D02*
D03*
Y3500D02*
D03*
Y2500D02*
D03*
D52*
Y8500D02*
D03*
D53*
Y7500D02*
D03*
D54*
Y500D02*
D03*
D55*
X10971Y19790D02*
D03*
X13181Y0D02*
D03*
X-13179D02*
D03*
X-11014Y19790D02*
D03*
M02*
