M48
;Layer_Color=9474304
;FILE_FORMAT=2:4
INCH,LZ
;TYPE=PLATED
T1F00S00C0.0197
T2F00S00C0.0197
T3F00S00C0.0354
T4F00S00C0.0394
T5F00S00C0.0591
T6F00S00C0.0630
T7F00S00C0.0787
T8F00S00C0.1240
%
T01
X008732Y01528
X009732
X010732
X010232Y01628
Y01728
X009232
Y01628
X009732Y01828
X010732
X008732
T02
X008159Y016378
X008691Y017659
X009732Y017795
X007982Y01862
X010984Y01627
T03
X007Y0015
X008
X009
X0083Y004
Y0048
X-001516Y007638
X-000778Y008455
X-0067Y0047
Y0039
X-005876Y002579
X-006Y0015
X-007
X-008
X-011811Y000177
X-014213Y001004
X-009Y01075
X-008
X-007
X-006
X-0068Y0122
X-0078
X-0088
Y0132
X-0078
X-0068
X001181Y01315
X-00027Y01876
X00563Y019252
X005914Y020354
X005719Y015502
X006Y01075
X007
X008
X009
T04
X011467Y007817
Y008817
X003Y0055
Y0045
Y0035
Y0025
Y0015
Y0005
X-003
Y0025
Y0035
Y0045
Y0055
Y0065
Y0075
Y0085
X-011211Y008817
Y007817
X-011191Y010051
Y011051
X-003Y0115
Y0125
Y0135
Y0145
Y0155
Y0165
Y0175
Y0185
Y0195
X003Y0175
Y0165
Y0155
Y0145
Y0135
Y0125
Y0115
Y0105
X-003
Y0095
X011467Y010051
Y011051
T05
X006Y0015
X0125Y0032
Y0043
X003Y0065
Y0075
Y0085
X-003Y0015
X-009
X-0125Y003
Y0042
X-0098Y0122
Y0132
X003Y0095
Y0185
Y0195
T06
X007333Y01315
X009183
X011033
T07
X013181Y0
X-013179
X-011014Y01979
X010971
T08
X004469Y016782
Y019449
M30
