M48
;Layer_Color=9474304
;FILE_FORMAT=2:5
INCH,LZ
;TYPE=PLATED
T1F00S00C0.01181
T2F00S00C0.03543
T3F00S00C0.03937
T4F00S00C0.05906
T5F00S00C0.07874
T6F00S00C0.18189
%
T01
X0069Y0146
T02
X007Y0015
X008
X009
X0083Y004
Y0048
X0018Y0045
X0019094Y0094095
X-0067Y0047
Y0039
X-007Y0015
X-006
X-0049941Y0011941
X-004763Y0017846
X-008Y0015
X-0079Y0004
X-0087Y0001
X-0093Y0002
X-0102Y007228
X-01Y008
X-009Y01075
X-008
X-007
X-006
X-0068Y0122
X-0078
X-0088
Y0132
X-0078
X-0068
X0019291Y0100394
X0039Y0169
X0076Y0173
X0079Y0167
X0093Y0203
X009Y01075
X008
X007
X006
T03
X-003Y0005
Y0025
Y0035
Y0045
Y0055
Y0065
Y0075
Y0085
X003Y0055
Y0045
Y0035
Y0025
Y0015
Y0005
Y0105
Y0115
Y0125
Y0135
Y0145
Y0155
Y0165
Y0175
X-003
Y0165
Y0155
Y0145
Y0135
Y0125
Y0115
Y0105
Y0095
Y0185
Y0195
T04
X006Y0015
X0125Y0032
Y0043
X003Y0065
Y0075
Y0085
X-003Y0015
X-009
X-0125Y003
Y0042
X-0098Y0122
Y0132
X003Y0095
Y0185
Y0195
T05
X0131801Y0
X-0131801
X-0110148Y0197904
X0109696
T06
X0063Y0162
Y0190189
M30
