G04*
G04 #@! TF.GenerationSoftware,Altium Limited,Altium NEXUS,1.1.9 (86)*
G04*
G04 Layer_Physical_Order=1*
G04 Layer_Color=255*
%FSLAX24Y24*%
%MOIN*%
G70*
G01*
G75*
%ADD10C,0.0100*%
%ADD13R,0.0177X0.0217*%
%ADD14R,0.0217X0.0177*%
G04:AMPARAMS|DCode=15|XSize=74.8mil|YSize=74.8mil|CornerRadius=0mil|HoleSize=0mil|Usage=FLASHONLY|Rotation=90.000|XOffset=0mil|YOffset=0mil|HoleType=Round|Shape=RoundedRectangle|*
%AMROUNDEDRECTD15*
21,1,0.0748,0.0748,0,0,90.0*
21,1,0.0748,0.0748,0,0,90.0*
1,1,0.0000,0.0374,0.0374*
1,1,0.0000,0.0374,-0.0374*
1,1,0.0000,-0.0374,-0.0374*
1,1,0.0000,-0.0374,0.0374*
%
%ADD15ROUNDEDRECTD15*%
%ADD16O,0.0098X0.0315*%
%ADD17O,0.0315X0.0098*%
%ADD18R,0.0787X0.0630*%
%ADD19R,0.0906X0.1850*%
%ADD41C,0.0118*%
%ADD42C,0.0197*%
%ADD43R,0.0591X0.0591*%
%ADD44C,0.0591*%
%ADD45C,0.1476*%
%ADD46C,0.0933*%
%ADD47C,0.0300*%
%ADD48C,0.0866*%
%ADD49C,0.0709*%
%ADD50R,0.0709X0.0709*%
%ADD51O,0.0787X0.0709*%
%ADD52O,0.0866X0.0709*%
%ADD53O,0.0866X0.0827*%
G04:AMPARAMS|DCode=54|XSize=78.7mil|YSize=70.9mil|CornerRadius=0mil|HoleSize=0mil|Usage=FLASHONLY|Rotation=180.000|XOffset=0mil|YOffset=0mil|HoleType=Round|Shape=Octagon|*
%AMOCTAGOND54*
4,1,8,-0.0394,0.0177,-0.0394,-0.0177,-0.0217,-0.0354,0.0217,-0.0354,0.0394,-0.0177,0.0394,0.0177,0.0217,0.0354,-0.0217,0.0354,-0.0394,0.0177,0.0*
%
%ADD54OCTAGOND54*%

%ADD55C,0.1575*%
%ADD56C,0.0512*%
G36*
X-8649Y20750D02*
X-11899Y17499D01*
X-11930Y17454D01*
X-11940Y17400D01*
Y13700D01*
Y6958D01*
X-11958Y6940D01*
X-13712D01*
X-13766Y6930D01*
X-13811Y6899D01*
X-14312Y6399D01*
X-14342Y6353D01*
X-14353Y6299D01*
Y1308D01*
X-14381Y1296D01*
X-14451Y1243D01*
X-14505Y1173D01*
X-14539Y1091D01*
X-14550Y1004D01*
X-14539Y917D01*
X-14505Y835D01*
X-14451Y765D01*
X-14381Y712D01*
X-14300Y678D01*
X-14213Y666D01*
X-14125Y678D01*
X-14044Y712D01*
X-13974Y765D01*
X-13920Y835D01*
X-13887Y917D01*
X-13875Y1004D01*
X-13887Y1091D01*
X-13920Y1173D01*
X-13974Y1243D01*
X-14044Y1296D01*
X-14072Y1308D01*
Y6241D01*
X-13654Y6660D01*
X-11900D01*
X-11846Y6670D01*
X-11801Y6701D01*
X-11701Y6801D01*
X-11670Y6846D01*
X-11659Y6900D01*
Y13295D01*
X-11613Y13315D01*
X-11399Y13101D01*
X-11354Y13070D01*
X-11300Y13060D01*
X-10296D01*
X-10247Y12942D01*
X-10165Y12835D01*
X-10058Y12753D01*
X-9934Y12701D01*
X-9800Y12684D01*
X-9666Y12701D01*
X-9542Y12753D01*
X-9435Y12835D01*
X-9353Y12942D01*
X-9301Y13066D01*
X-9288Y13164D01*
X-9286Y13187D01*
X-9235D01*
X-9232Y13164D01*
X-9222Y13087D01*
X-9178Y12982D01*
X-9109Y12891D01*
X-9018Y12822D01*
X-8913Y12778D01*
X-8800Y12763D01*
X-8687Y12778D01*
X-8582Y12822D01*
X-8491Y12891D01*
X-8422Y12982D01*
X-8378Y13087D01*
X-8363Y13200D01*
X-8378Y13313D01*
X-8422Y13418D01*
X-8491Y13509D01*
X-8582Y13578D01*
X-8687Y13622D01*
X-8800Y13637D01*
X-8913Y13622D01*
X-9018Y13578D01*
X-9109Y13509D01*
X-9178Y13418D01*
X-9222Y13313D01*
X-9232Y13236D01*
X-9235Y13213D01*
X-9286D01*
X-9288Y13236D01*
X-9301Y13334D01*
X-9353Y13458D01*
X-9435Y13565D01*
X-9542Y13647D01*
X-9666Y13699D01*
X-9800Y13716D01*
X-9934Y13699D01*
X-10058Y13647D01*
X-10165Y13565D01*
X-10247Y13458D01*
X-10296Y13341D01*
X-11242D01*
X-11659Y13758D01*
Y17342D01*
X-8442Y20559D01*
X4454D01*
X5243Y19770D01*
Y19498D01*
X5254Y19444D01*
X5285Y19399D01*
X5316Y19368D01*
X5304Y19339D01*
X5292Y19252D01*
X5304Y19165D01*
X5338Y19083D01*
X5391Y19013D01*
X5461Y18960D01*
X5543Y18926D01*
X5630Y18914D01*
X5717Y18926D01*
X5799Y18960D01*
X5834Y18987D01*
X5871Y18952D01*
X5856Y18930D01*
X5849Y18892D01*
Y18720D01*
X5801D01*
Y18465D01*
X6097D01*
Y18720D01*
X6049D01*
Y18850D01*
X6288Y19089D01*
X6310Y19122D01*
X6317Y19160D01*
Y19335D01*
X6390Y19408D01*
X8571D01*
X9132Y18846D01*
Y17488D01*
X9067Y17444D01*
X9017Y17369D01*
X8999Y17280D01*
X9017Y17190D01*
X9067Y17115D01*
X9143Y17064D01*
X9232Y17046D01*
X9322Y17064D01*
X9397Y17115D01*
X9448Y17190D01*
X9466Y17280D01*
X9448Y17369D01*
X9397Y17444D01*
X9333Y17488D01*
Y17602D01*
X9367Y17616D01*
X9383Y17617D01*
X9731Y17269D01*
X9761Y17256D01*
X10003D01*
X10004Y17256D01*
X10017Y17190D01*
X10067Y17115D01*
X10143Y17064D01*
X10232Y17046D01*
X10322Y17064D01*
X10397Y17115D01*
X10440Y17179D01*
X10748D01*
X11494Y16433D01*
Y15416D01*
X10672Y14594D01*
X8422D01*
X7308Y15708D01*
X7312Y15758D01*
X7352D01*
Y16014D01*
X7057D01*
Y15820D01*
X7007Y15799D01*
X6731Y16075D01*
Y16589D01*
X6762Y16631D01*
X6784D01*
X6786Y16629D01*
X6821Y16622D01*
X6855Y16629D01*
X6858Y16631D01*
X6880D01*
X6910Y16643D01*
X6929Y16642D01*
X6944Y16637D01*
X6959Y16631D01*
X6981D01*
X6983Y16629D01*
X7018Y16622D01*
X7052Y16629D01*
X7054Y16631D01*
X7066D01*
X7104Y16592D01*
Y16368D01*
X7057D01*
Y16112D01*
X7352D01*
Y16368D01*
X7305D01*
Y16634D01*
X7297Y16672D01*
X7276Y16705D01*
X7133Y16847D01*
X7121Y16893D01*
Y16902D01*
X7124Y16909D01*
X7121Y16917D01*
Y16926D01*
X7102Y16971D01*
Y16971D01*
X7126Y17018D01*
X7136D01*
Y17027D01*
X7181Y17051D01*
X7185Y17050D01*
X7228Y17033D01*
X7237D01*
X7245Y17029D01*
X7296Y17030D01*
X7577Y16750D01*
Y16368D01*
X7530D01*
Y16112D01*
X7825D01*
Y16368D01*
X7778D01*
Y16791D01*
X7770Y16830D01*
X7748Y16862D01*
X7523Y17087D01*
Y17099D01*
X7524Y17101D01*
X7531Y17136D01*
X7524Y17170D01*
X7523Y17173D01*
Y17195D01*
X7510Y17225D01*
X7480Y17237D01*
X7262D01*
X7260Y17239D01*
X7252D01*
X7244Y17242D01*
X7236Y17239D01*
X7228D01*
X7189Y17223D01*
X7161Y17234D01*
X7139Y17248D01*
Y17418D01*
X7161Y17432D01*
X7189Y17442D01*
X7228Y17426D01*
X7237D01*
X7245Y17423D01*
X7451Y17427D01*
X7608Y17270D01*
Y17136D01*
X7864D01*
Y17431D01*
X7731D01*
X7633Y17529D01*
X7654Y17579D01*
X7864D01*
Y17874D01*
X7608D01*
Y17827D01*
X7483D01*
X7480Y17828D01*
X7262D01*
X7260Y17830D01*
X7252D01*
X7244Y17833D01*
X7236Y17830D01*
X7228D01*
X7185Y17812D01*
X7181Y17812D01*
X7136Y17835D01*
Y17844D01*
X7126D01*
X7102Y17891D01*
Y17891D01*
X7121Y17936D01*
Y17945D01*
X7124Y17954D01*
X7123Y18005D01*
X7177Y18059D01*
X7648D01*
Y18022D01*
X7904D01*
Y18317D01*
X7648D01*
Y18260D01*
X7136D01*
X7097Y18252D01*
X7067Y18232D01*
X7054D01*
X7052Y18233D01*
X7018Y18240D01*
X6983Y18233D01*
X6981Y18232D01*
X6959D01*
X6929Y18219D01*
X6918Y18224D01*
X6918Y18225D01*
X6887Y18238D01*
X6831D01*
X6821Y18240D01*
X6811Y18238D01*
X6762D01*
X6724Y18277D01*
Y18462D01*
X6803Y18541D01*
X6884D01*
Y18494D01*
X7140D01*
Y18789D01*
X6884D01*
Y18742D01*
X6762D01*
X6724Y18734D01*
X6691Y18713D01*
X6578Y18599D01*
X6528Y18620D01*
Y18940D01*
X6574Y18986D01*
X6708D01*
Y19281D01*
X6452D01*
Y19148D01*
X6356Y19052D01*
X6334Y19020D01*
X6327Y18981D01*
Y18192D01*
X6326Y18189D01*
Y17971D01*
X6324Y17969D01*
Y17961D01*
X6321Y17953D01*
X6324Y17945D01*
Y17936D01*
X6343Y17891D01*
Y17891D01*
X6319Y17844D01*
X6309D01*
Y17835D01*
X6262Y17811D01*
X6262D01*
X6217Y17830D01*
X6213D01*
Y18075D01*
X6205Y18114D01*
X6183Y18146D01*
X6097Y18232D01*
Y18366D01*
X5801D01*
Y18110D01*
X5935D01*
X6012Y18034D01*
Y17829D01*
X5964Y17828D01*
X5949Y17822D01*
X5934Y17816D01*
X5934Y17815D01*
X5934Y17815D01*
X5928Y17800D01*
X5922Y17785D01*
Y17763D01*
X5920Y17761D01*
X5914Y17726D01*
X5920Y17692D01*
X5922Y17690D01*
Y17667D01*
X5934Y17621D01*
X5934Y17618D01*
X5928Y17603D01*
X5922Y17589D01*
Y17566D01*
X5920Y17564D01*
X5914Y17530D01*
X5920Y17495D01*
X5922Y17493D01*
Y17470D01*
X5934Y17440D01*
X5965Y17428D01*
X6183D01*
X6184Y17426D01*
X6193D01*
X6201Y17423D01*
X6209Y17426D01*
X6217D01*
X6262Y17445D01*
X6262D01*
X6309Y17421D01*
Y17244D01*
X6262Y17220D01*
X6262D01*
X6217Y17239D01*
X6208D01*
X6200Y17242D01*
X5964Y17237D01*
X5961Y17236D01*
X5504D01*
X3693Y19047D01*
Y19809D01*
X3685Y19848D01*
X3663Y19880D01*
X3237Y20307D01*
X3204Y20329D01*
X3166Y20337D01*
X1093D01*
X1054Y20329D01*
X1022Y20307D01*
X165Y19451D01*
X144Y19418D01*
X136Y19380D01*
Y16674D01*
X144Y16635D01*
X165Y16603D01*
X561Y16207D01*
Y16083D01*
X608D01*
Y15184D01*
X616Y15146D01*
X638Y15113D01*
X1257Y14493D01*
X1117Y14353D01*
X1097Y14323D01*
X1090Y14288D01*
Y13474D01*
X1012Y13442D01*
X942Y13388D01*
X889Y13318D01*
X855Y13237D01*
X844Y13150D01*
X855Y13062D01*
X889Y12981D01*
X942Y12911D01*
X1012Y12857D01*
X1094Y12824D01*
X1181Y12812D01*
X1268Y12824D01*
X1350Y12857D01*
X1420Y12911D01*
X1473Y12981D01*
X1507Y13062D01*
X1519Y13150D01*
X1507Y13237D01*
X1473Y13318D01*
X1420Y13388D01*
X1350Y13442D01*
X1272Y13474D01*
Y14251D01*
X1428Y14407D01*
X1431Y14407D01*
X1434Y14409D01*
X2536D01*
X2539Y14387D01*
X2582Y14282D01*
X2652Y14191D01*
X2742Y14122D01*
X2848Y14078D01*
X2961Y14063D01*
X3039D01*
X3152Y14078D01*
X3258Y14122D01*
X3348Y14191D01*
X3418Y14282D01*
X3461Y14387D01*
X3476Y14500D01*
X3461Y14613D01*
X3418Y14718D01*
X3348Y14809D01*
X3258Y14878D01*
X3152Y14922D01*
X3039Y14937D01*
X2961D01*
X2848Y14922D01*
X2742Y14878D01*
X2652Y14809D01*
X2582Y14718D01*
X2539Y14613D01*
X2536Y14591D01*
X1444D01*
X809Y15226D01*
Y16083D01*
X856D01*
Y16339D01*
X713D01*
X661Y16391D01*
X680Y16437D01*
X856D01*
Y16693D01*
X809D01*
Y17065D01*
X1144Y17400D01*
X1730D01*
X1749Y17353D01*
X1573Y17177D01*
X1551Y17145D01*
X1543Y17106D01*
Y16693D01*
X1496D01*
Y16437D01*
X1791D01*
Y16693D01*
X1744D01*
Y17065D01*
X2079Y17400D01*
X2537D01*
X2539Y17387D01*
X2582Y17282D01*
X2652Y17191D01*
X2742Y17122D01*
X2848Y17078D01*
X2961Y17063D01*
X3039D01*
X3152Y17078D01*
X3258Y17122D01*
X3348Y17191D01*
X3418Y17282D01*
X3461Y17387D01*
X3476Y17500D01*
X3461Y17613D01*
X3418Y17718D01*
X3348Y17809D01*
X3258Y17878D01*
X3152Y17922D01*
X3039Y17937D01*
X2961D01*
X2848Y17922D01*
X2742Y17878D01*
X2652Y17809D01*
X2582Y17718D01*
X2539Y17613D01*
X2537Y17600D01*
X1102D01*
X1064Y17593D01*
X1031Y17571D01*
X638Y17177D01*
X616Y17145D01*
X608Y17106D01*
Y16693D01*
X561D01*
Y16556D01*
X515Y16537D01*
X337Y16715D01*
Y19338D01*
X1134Y20136D01*
X3124D01*
X3492Y19768D01*
Y19006D01*
X3500Y18967D01*
X3522Y18935D01*
X4953Y17504D01*
X4925Y17464D01*
X4783Y17540D01*
X4629Y17587D01*
X4469Y17602D01*
X4308Y17587D01*
X4154Y17540D01*
X4012Y17464D01*
X3888Y17362D01*
X3786Y17238D01*
X3710Y17096D01*
X3663Y16942D01*
X3648Y16782D01*
X3663Y16621D01*
X3710Y16467D01*
X3786Y16325D01*
X3888Y16201D01*
X4012Y16099D01*
X4154Y16023D01*
X4308Y15976D01*
X4469Y15961D01*
X4629Y15976D01*
X4783Y16023D01*
X4925Y16099D01*
X5049Y16201D01*
X5151Y16325D01*
X5227Y16467D01*
X5274Y16621D01*
X5289Y16782D01*
X5274Y16942D01*
X5227Y17096D01*
X5151Y17238D01*
X5191Y17266D01*
X5392Y17065D01*
X5424Y17043D01*
X5463Y17035D01*
X5961D01*
X5965Y17034D01*
X6183D01*
X6184Y17033D01*
X6193D01*
X6201Y17029D01*
X6209Y17033D01*
X6217D01*
X6262Y17051D01*
X6262D01*
X6309Y17027D01*
Y17018D01*
X6319D01*
X6343Y16971D01*
Y16971D01*
X6324Y16926D01*
Y16921D01*
X6132D01*
X6093Y16914D01*
X6061Y16892D01*
X4769Y15600D01*
X3463D01*
X3461Y15613D01*
X3418Y15718D01*
X3348Y15809D01*
X3258Y15878D01*
X3152Y15922D01*
X3039Y15937D01*
X2961D01*
X2848Y15922D01*
X2742Y15878D01*
X2652Y15809D01*
X2582Y15718D01*
X2539Y15613D01*
X2537Y15600D01*
X1983D01*
X1744Y15839D01*
Y16083D01*
X1791D01*
Y16339D01*
X1496D01*
Y16083D01*
X1543D01*
Y15797D01*
X1551Y15759D01*
X1573Y15726D01*
X1870Y15429D01*
X1903Y15407D01*
X1941Y15400D01*
X2537D01*
X2539Y15387D01*
X2582Y15282D01*
X2652Y15191D01*
X2742Y15122D01*
X2848Y15078D01*
X2961Y15063D01*
X3039D01*
X3152Y15078D01*
X3258Y15122D01*
X3348Y15191D01*
X3418Y15282D01*
X3461Y15387D01*
X3463Y15400D01*
X4811D01*
X4849Y15407D01*
X4882Y15429D01*
X6173Y16721D01*
X6325D01*
X6326Y16672D01*
X6332Y16658D01*
X6338Y16643D01*
X6338Y16643D01*
X6339Y16642D01*
X6353Y16637D01*
X6368Y16631D01*
X6390D01*
X6393Y16629D01*
X6427Y16622D01*
X6462Y16629D01*
X6464Y16631D01*
X6486D01*
X6517Y16589D01*
Y15635D01*
X6517Y15635D01*
X6530Y15605D01*
X6530Y15605D01*
X8107Y14028D01*
X8122Y14021D01*
X8137Y14015D01*
X11028Y14013D01*
X11028Y14013D01*
X11028Y14013D01*
X11043Y14019D01*
X11058Y14025D01*
X11058Y14025D01*
X11058Y14025D01*
X11954Y14921D01*
X12000Y14902D01*
Y7000D01*
X14800D01*
Y-1200D01*
X4126D01*
X4106Y-1154D01*
X5365Y105D01*
X5377Y135D01*
Y1917D01*
X7118Y3657D01*
X12377D01*
X12379Y3659D01*
X12382Y3658D01*
X12500Y3673D01*
X12618Y3658D01*
X12621Y3659D01*
X12623Y3657D01*
X13000D01*
X13030Y3670D01*
X13043Y3700D01*
Y5100D01*
X13030Y5130D01*
X13000Y5143D01*
X12992D01*
Y6545D01*
X12008D01*
Y5143D01*
X6500D01*
X6500Y5143D01*
X6470Y5130D01*
X6470Y5130D01*
X4163Y2823D01*
X4150Y2793D01*
Y811D01*
X3282Y-57D01*
X-3182D01*
X-4062Y822D01*
X-4062Y2923D01*
X-4062Y2923D01*
X-4074Y2953D01*
X-4074Y2953D01*
X-6151Y5030D01*
X-6181Y5043D01*
X-12008Y5043D01*
Y6545D01*
X-12992D01*
Y5043D01*
X-13000D01*
X-13030Y5030D01*
X-13043Y5000D01*
Y3600D01*
X-13030Y3570D01*
X-13000Y3557D01*
X-6318D01*
X-5652Y2892D01*
X-5685Y2854D01*
X-5707Y2871D01*
X-5789Y2905D01*
X-5876Y2916D01*
X-5963Y2905D01*
X-6045Y2871D01*
X-6115Y2817D01*
X-6168Y2748D01*
X-6200Y2670D01*
X-10807D01*
X-10842Y2663D01*
X-10872Y2643D01*
X-11875Y1639D01*
X-11895Y1610D01*
X-11902Y1575D01*
Y502D01*
X-11980Y469D01*
X-12050Y416D01*
X-12103Y346D01*
X-12137Y265D01*
X-12149Y177D01*
X-12137Y90D01*
X-12103Y8D01*
X-12050Y-62D01*
X-11980Y-115D01*
X-11898Y-149D01*
X-11811Y-160D01*
X-11724Y-149D01*
X-11642Y-115D01*
X-11572Y-62D01*
X-11519Y8D01*
X-11485Y90D01*
X-11473Y177D01*
X-11485Y265D01*
X-11519Y346D01*
X-11572Y416D01*
X-11642Y469D01*
X-11720Y502D01*
Y1537D01*
X-10769Y2488D01*
X-6200D01*
X-6168Y2410D01*
X-6115Y2340D01*
X-6045Y2286D01*
X-5963Y2253D01*
X-5876Y2241D01*
X-5789Y2253D01*
X-5707Y2286D01*
X-5637Y2340D01*
X-5584Y2410D01*
X-5550Y2491D01*
X-5538Y2579D01*
X-5550Y2666D01*
X-5584Y2748D01*
X-5601Y2770D01*
X-5563Y2803D01*
X-5239Y2479D01*
Y97D01*
X-5239Y97D01*
X-5227Y67D01*
X-4006Y-1154D01*
X-4026Y-1200D01*
X-14700D01*
Y7000D01*
X-12000D01*
Y20800D01*
X-8669D01*
X-8649Y20750D01*
D02*
G37*
G36*
X12000Y16753D02*
X11954Y16734D01*
X10683Y18005D01*
X10708Y18051D01*
X10732Y18046D01*
X10822Y18064D01*
X10897Y18115D01*
X10948Y18190D01*
X10965Y18280D01*
X10948Y18369D01*
X10897Y18444D01*
X10822Y18495D01*
X10732Y18513D01*
X10643Y18495D01*
X10567Y18444D01*
X10517Y18369D01*
X10499Y18280D01*
X10504Y18255D01*
X10458Y18230D01*
X10085Y18603D01*
X10055Y18615D01*
X9646Y18615D01*
X9646Y18615D01*
X9616Y18603D01*
X9616Y18603D01*
X9383Y18370D01*
X9367Y18372D01*
X9333Y18385D01*
Y18888D01*
X9325Y18926D01*
X9303Y18959D01*
X8683Y19579D01*
X8651Y19601D01*
X8612Y19608D01*
X6348D01*
X6310Y19601D01*
X6277Y19579D01*
X6146Y19447D01*
X6124Y19415D01*
X6117Y19377D01*
Y19202D01*
X5942Y19027D01*
X5904Y19060D01*
X5922Y19083D01*
X5956Y19165D01*
X5967Y19252D01*
X5956Y19339D01*
X5922Y19421D01*
X5869Y19491D01*
X5799Y19544D01*
X5717Y19578D01*
X5630Y19590D01*
X5574Y19582D01*
X5524Y19621D01*
Y19828D01*
X5514Y19882D01*
X5483Y19927D01*
X4661Y20750D01*
X4681Y20800D01*
X12000D01*
Y16753D01*
D02*
G37*
G36*
X7082Y17953D02*
X7063Y17908D01*
X7018Y17889D01*
X6973Y17908D01*
X6954Y17953D01*
X6959D01*
Y18189D01*
X7077D01*
X7082Y17953D01*
D02*
G37*
G36*
X6688D02*
X6669Y17908D01*
X6624Y17889D01*
X6579Y17908D01*
X6560Y17953D01*
X6565D01*
Y18189D01*
X6683D01*
X6688Y17953D01*
D02*
G37*
G36*
X6491D02*
X6472Y17908D01*
X6427Y17889D01*
X6382Y17908D01*
X6363Y17953D01*
X6368D01*
Y18189D01*
X6486D01*
X6491Y17953D01*
D02*
G37*
G36*
X7244Y17785D02*
X7480D01*
Y17667D01*
X7244Y17662D01*
X7199Y17681D01*
X7180Y17726D01*
X7199Y17772D01*
X7244Y17790D01*
Y17785D01*
D02*
G37*
G36*
X6246Y17772D02*
X6265Y17726D01*
X6246Y17681D01*
X6201Y17662D01*
Y17667D01*
X5965D01*
Y17785D01*
X6201Y17790D01*
X6246Y17772D01*
D02*
G37*
G36*
X7244Y17589D02*
X7480D01*
Y17470D01*
X7244Y17466D01*
X7199Y17484D01*
X7180Y17530D01*
X7199Y17575D01*
X7244Y17593D01*
Y17589D01*
D02*
G37*
G36*
X6246Y17575D02*
X6265Y17530D01*
X6246Y17484D01*
X6201Y17466D01*
Y17470D01*
X5965D01*
Y17589D01*
X6201Y17593D01*
X6246Y17575D01*
D02*
G37*
G36*
X7244Y17195D02*
X7480D01*
Y17077D01*
X7244Y17072D01*
X7199Y17091D01*
X7180Y17136D01*
X7199Y17181D01*
X7244Y17200D01*
Y17195D01*
D02*
G37*
G36*
X6246Y17181D02*
X6265Y17136D01*
X6246Y17091D01*
X6201Y17072D01*
Y17077D01*
X5965D01*
Y17195D01*
X6201Y17200D01*
X6246Y17181D01*
D02*
G37*
G36*
X7063Y16955D02*
X7082Y16909D01*
X7077D01*
Y16673D01*
X6959D01*
X6954Y16909D01*
X6973Y16955D01*
X7018Y16973D01*
X7063Y16955D01*
D02*
G37*
G36*
X6866D02*
X6885Y16909D01*
X6880D01*
Y16673D01*
X6762D01*
X6757Y16909D01*
X6776Y16955D01*
X6821Y16973D01*
X6866Y16955D01*
D02*
G37*
G36*
X6472D02*
X6491Y16909D01*
X6486D01*
Y16673D01*
X6368D01*
X6363Y16909D01*
X6382Y16955D01*
X6427Y16973D01*
X6472Y16955D01*
D02*
G37*
G36*
X12017Y16611D02*
X12017Y15044D01*
X11028Y14055D01*
X8137Y14058D01*
X6560Y15635D01*
Y17063D01*
X6360D01*
Y17800D01*
X6762D01*
Y17941D01*
X6757Y17953D01*
X6762D01*
Y18189D01*
Y18195D01*
X6887D01*
Y17800D01*
X7096D01*
Y17063D01*
X6688D01*
Y16909D01*
X6688Y16909D01*
X6688D01*
Y16058D01*
X7111Y15634D01*
X7112Y15631D01*
X7134Y15598D01*
X8310Y14423D01*
X8342Y14401D01*
X8346Y14400D01*
X8346Y14400D01*
X8348D01*
X8381Y14393D01*
X10714D01*
X10752Y14401D01*
X10785Y14423D01*
X11665Y15303D01*
X11687Y15336D01*
X11688Y15342D01*
X11695Y15374D01*
Y16474D01*
X11687Y16513D01*
X11665Y16545D01*
X10860Y17350D01*
X10828Y17372D01*
X10789Y17380D01*
X10440D01*
X10397Y17444D01*
X10322Y17495D01*
X10232Y17513D01*
X10143Y17495D01*
X10067Y17444D01*
X10017Y17369D01*
X10003Y17299D01*
X9761D01*
X9409Y17651D01*
X9409Y18337D01*
X9646Y18573D01*
X10055Y18573D01*
X12017Y16611D01*
D02*
G37*
G36*
X13000Y3700D02*
X12623D01*
X12500Y3716D01*
X12377Y3700D01*
X7100D01*
X5335Y1935D01*
Y135D01*
X4000Y-1200D01*
X-3900D01*
X-5197Y97D01*
Y2497D01*
X-6300Y3600D01*
X-13000D01*
Y5000D01*
X-6181Y5000D01*
X-4104Y2923D01*
X-4104Y804D01*
X-3200Y-100D01*
X3300D01*
X4193Y793D01*
Y2793D01*
X6500Y5100D01*
X13000D01*
Y3700D01*
D02*
G37*
%LPC*%
G36*
X-2961Y19937D02*
X-3039D01*
X-3152Y19922D01*
X-3258Y19878D01*
X-3348Y19809D01*
X-3418Y19718D01*
X-3461Y19613D01*
X-3476Y19500D01*
X-3461Y19387D01*
X-3418Y19282D01*
X-3348Y19191D01*
X-3258Y19122D01*
X-3152Y19078D01*
X-3039Y19063D01*
X-2961D01*
X-2848Y19078D01*
X-2742Y19122D01*
X-2652Y19191D01*
X-2582Y19282D01*
X-2539Y19387D01*
X-2524Y19500D01*
X-2539Y19613D01*
X-2582Y19718D01*
X-2652Y19809D01*
X-2742Y19878D01*
X-2848Y19922D01*
X-2961Y19937D01*
D02*
G37*
G36*
X7982Y18853D02*
X7893Y18835D01*
X7817Y18785D01*
X7789Y18742D01*
X7495D01*
Y18789D01*
X7239D01*
Y18494D01*
X7495D01*
Y18541D01*
X7765D01*
X7767Y18531D01*
X7817Y18455D01*
X7893Y18404D01*
X7982Y18387D01*
X8072Y18404D01*
X8147Y18455D01*
X8198Y18531D01*
X8216Y18620D01*
X8198Y18709D01*
X8147Y18785D01*
X8072Y18835D01*
X7982Y18853D01*
D02*
G37*
G36*
X-2961Y18937D02*
X-3039D01*
X-3152Y18922D01*
X-3258Y18878D01*
X-3348Y18809D01*
X-3418Y18718D01*
X-3461Y18613D01*
X-3476Y18500D01*
X-3461Y18387D01*
X-3418Y18282D01*
X-3348Y18191D01*
X-3258Y18122D01*
X-3152Y18078D01*
X-3039Y18063D01*
X-2961D01*
X-2848Y18078D01*
X-2742Y18122D01*
X-2652Y18191D01*
X-2582Y18282D01*
X-2539Y18387D01*
X-2524Y18500D01*
X-2539Y18613D01*
X-2582Y18718D01*
X-2652Y18809D01*
X-2742Y18878D01*
X-2848Y18922D01*
X-2961Y18937D01*
D02*
G37*
G36*
X7062Y19281D02*
X6806D01*
Y18986D01*
X7062D01*
Y19034D01*
X8164D01*
X8632Y18566D01*
Y18488D01*
X8567Y18444D01*
X8517Y18369D01*
X8499Y18280D01*
X8517Y18190D01*
X8567Y18115D01*
X8643Y18064D01*
X8732Y18046D01*
X8822Y18064D01*
X8897Y18115D01*
X8948Y18190D01*
X8965Y18280D01*
X8948Y18369D01*
X8897Y18444D01*
X8833Y18488D01*
Y18607D01*
X8825Y18646D01*
X8803Y18678D01*
X8277Y19205D01*
X8244Y19227D01*
X8206Y19234D01*
X7062D01*
Y19281D01*
D02*
G37*
G36*
X8258Y18317D02*
X8002D01*
Y18022D01*
X8186D01*
X8473Y17735D01*
X8458Y17659D01*
X8475Y17570D01*
X8507Y17523D01*
X8468Y17491D01*
X8219Y17740D01*
Y17874D01*
X7963D01*
Y17579D01*
X8096D01*
X8194Y17481D01*
X8173Y17431D01*
X7963D01*
Y17136D01*
X8096D01*
X8689Y16543D01*
Y16124D01*
X8697Y16086D01*
X8718Y16053D01*
X9004Y15768D01*
X9036Y15746D01*
X9075Y15738D01*
X10553D01*
X10592Y15746D01*
X10624Y15768D01*
X10908Y16052D01*
X10984Y16036D01*
X11073Y16054D01*
X11149Y16105D01*
X11200Y16180D01*
X11217Y16270D01*
X11200Y16359D01*
X11149Y16435D01*
X11073Y16485D01*
X10984Y16503D01*
X10895Y16485D01*
X10819Y16435D01*
X10769Y16359D01*
X10751Y16270D01*
X10766Y16194D01*
X10512Y15939D01*
X9116D01*
X8890Y16166D01*
Y16585D01*
X8882Y16623D01*
X8860Y16656D01*
X8219Y17297D01*
Y17386D01*
X8268Y17407D01*
X8937Y16738D01*
X8970Y16716D01*
X9008Y16709D01*
X9661D01*
X10014Y16356D01*
X9999Y16280D01*
X10017Y16190D01*
X10067Y16115D01*
X10143Y16064D01*
X10232Y16046D01*
X10322Y16064D01*
X10397Y16115D01*
X10448Y16190D01*
X10466Y16280D01*
X10448Y16369D01*
X10397Y16444D01*
X10322Y16495D01*
X10232Y16513D01*
X10156Y16498D01*
X9774Y16880D01*
X9741Y16902D01*
X9703Y16909D01*
X9050D01*
X8523Y17436D01*
X8555Y17474D01*
X8602Y17443D01*
X8691Y17426D01*
X8780Y17443D01*
X8856Y17494D01*
X8906Y17570D01*
X8924Y17659D01*
X8906Y17748D01*
X8856Y17824D01*
X8780Y17874D01*
X8691Y17892D01*
X8615Y17877D01*
X8258Y18234D01*
Y18317D01*
D02*
G37*
G36*
X-2961Y17937D02*
X-3039D01*
X-3152Y17922D01*
X-3258Y17878D01*
X-3348Y17809D01*
X-3418Y17718D01*
X-3461Y17613D01*
X-3476Y17500D01*
X-3461Y17387D01*
X-3418Y17282D01*
X-3348Y17191D01*
X-3258Y17122D01*
X-3152Y17078D01*
X-3039Y17063D01*
X-2961D01*
X-2848Y17078D01*
X-2742Y17122D01*
X-2652Y17191D01*
X-2582Y17282D01*
X-2539Y17387D01*
X-2524Y17500D01*
X-2539Y17613D01*
X-2582Y17718D01*
X-2652Y17809D01*
X-2742Y17878D01*
X-2848Y17922D01*
X-2961Y17937D01*
D02*
G37*
G36*
X3039Y16937D02*
X2961D01*
X2848Y16922D01*
X2742Y16878D01*
X2652Y16809D01*
X2582Y16718D01*
X2539Y16613D01*
X2524Y16500D01*
X2539Y16387D01*
X2582Y16282D01*
X2652Y16191D01*
X2742Y16122D01*
X2848Y16078D01*
X2961Y16063D01*
X3039D01*
X3152Y16078D01*
X3258Y16122D01*
X3348Y16191D01*
X3418Y16282D01*
X3461Y16387D01*
X3476Y16500D01*
X3461Y16613D01*
X3418Y16718D01*
X3348Y16809D01*
X3258Y16878D01*
X3152Y16922D01*
X3039Y16937D01*
D02*
G37*
G36*
X-2961D02*
X-3039D01*
X-3152Y16922D01*
X-3258Y16878D01*
X-3348Y16809D01*
X-3418Y16718D01*
X-3461Y16613D01*
X-3476Y16500D01*
X-3461Y16387D01*
X-3418Y16282D01*
X-3348Y16191D01*
X-3258Y16122D01*
X-3152Y16078D01*
X-3039Y16063D01*
X-2961D01*
X-2848Y16078D01*
X-2742Y16122D01*
X-2652Y16191D01*
X-2582Y16282D01*
X-2539Y16387D01*
X-2524Y16500D01*
X-2539Y16613D01*
X-2582Y16718D01*
X-2652Y16809D01*
X-2742Y16878D01*
X-2848Y16922D01*
X-2961Y16937D01*
D02*
G37*
G36*
X9232Y16513D02*
X9143Y16495D01*
X9067Y16444D01*
X9017Y16369D01*
X8999Y16280D01*
X9017Y16190D01*
X9067Y16115D01*
X9143Y16064D01*
X9232Y16046D01*
X9322Y16064D01*
X9397Y16115D01*
X9448Y16190D01*
X9466Y16280D01*
X9448Y16369D01*
X9397Y16444D01*
X9322Y16495D01*
X9232Y16513D01*
D02*
G37*
G36*
X-2961Y15937D02*
X-3039D01*
X-3152Y15922D01*
X-3258Y15878D01*
X-3348Y15809D01*
X-3418Y15718D01*
X-3461Y15613D01*
X-3476Y15500D01*
X-3461Y15387D01*
X-3418Y15282D01*
X-3348Y15191D01*
X-3258Y15122D01*
X-3152Y15078D01*
X-3039Y15063D01*
X-2961D01*
X-2848Y15078D01*
X-2742Y15122D01*
X-2652Y15191D01*
X-2582Y15282D01*
X-2539Y15387D01*
X-2524Y15500D01*
X-2539Y15613D01*
X-2582Y15718D01*
X-2652Y15809D01*
X-2742Y15878D01*
X-2848Y15922D01*
X-2961Y15937D01*
D02*
G37*
G36*
X7825Y16014D02*
X7530D01*
Y15758D01*
X7577D01*
Y15686D01*
X7584Y15648D01*
X7606Y15615D01*
X8430Y14791D01*
X8463Y14769D01*
X8501Y14762D01*
X10315D01*
X10353Y14769D01*
X10386Y14791D01*
X10656Y15061D01*
X10732Y15046D01*
X10822Y15064D01*
X10897Y15115D01*
X10948Y15190D01*
X10965Y15280D01*
X10948Y15369D01*
X10897Y15444D01*
X10822Y15495D01*
X10732Y15513D01*
X10643Y15495D01*
X10567Y15444D01*
X10517Y15369D01*
X10499Y15280D01*
X10514Y15203D01*
X10273Y14963D01*
X8543D01*
X7797Y15708D01*
X7818Y15758D01*
X7825D01*
Y16014D01*
D02*
G37*
G36*
X9732Y15513D02*
X9643Y15495D01*
X9567Y15444D01*
X9517Y15369D01*
X9499Y15280D01*
X9517Y15190D01*
X9567Y15115D01*
X9643Y15064D01*
X9732Y15046D01*
X9822Y15064D01*
X9897Y15115D01*
X9948Y15190D01*
X9966Y15280D01*
X9948Y15369D01*
X9897Y15444D01*
X9822Y15495D01*
X9732Y15513D01*
D02*
G37*
G36*
X8732D02*
X8643Y15495D01*
X8567Y15444D01*
X8517Y15369D01*
X8499Y15280D01*
X8517Y15190D01*
X8567Y15115D01*
X8643Y15064D01*
X8732Y15046D01*
X8822Y15064D01*
X8897Y15115D01*
X8948Y15190D01*
X8965Y15280D01*
X8948Y15369D01*
X8897Y15444D01*
X8822Y15495D01*
X8732Y15513D01*
D02*
G37*
G36*
X-2961Y14937D02*
X-3039D01*
X-3152Y14922D01*
X-3258Y14878D01*
X-3348Y14809D01*
X-3418Y14718D01*
X-3461Y14613D01*
X-3476Y14500D01*
X-3461Y14387D01*
X-3418Y14282D01*
X-3348Y14191D01*
X-3258Y14122D01*
X-3152Y14078D01*
X-3039Y14063D01*
X-2961D01*
X-2848Y14078D01*
X-2742Y14122D01*
X-2652Y14191D01*
X-2582Y14282D01*
X-2539Y14387D01*
X-2524Y14500D01*
X-2539Y14613D01*
X-2582Y14718D01*
X-2652Y14809D01*
X-2742Y14878D01*
X-2848Y14922D01*
X-2961Y14937D01*
D02*
G37*
G36*
X3039Y13937D02*
X2961D01*
X2848Y13922D01*
X2742Y13878D01*
X2652Y13809D01*
X2582Y13718D01*
X2539Y13613D01*
X2524Y13500D01*
X2539Y13387D01*
X2582Y13282D01*
X2652Y13191D01*
X2742Y13122D01*
X2848Y13078D01*
X2961Y13063D01*
X3039D01*
X3152Y13078D01*
X3258Y13122D01*
X3348Y13191D01*
X3418Y13282D01*
X3461Y13387D01*
X3476Y13500D01*
X3461Y13613D01*
X3418Y13718D01*
X3348Y13809D01*
X3258Y13878D01*
X3152Y13922D01*
X3039Y13937D01*
D02*
G37*
G36*
X-2961D02*
X-3039D01*
X-3152Y13922D01*
X-3258Y13878D01*
X-3348Y13809D01*
X-3418Y13718D01*
X-3461Y13613D01*
X-3476Y13500D01*
X-3461Y13387D01*
X-3418Y13282D01*
X-3348Y13191D01*
X-3258Y13122D01*
X-3152Y13078D01*
X-3039Y13063D01*
X-2961D01*
X-2848Y13078D01*
X-2742Y13122D01*
X-2652Y13191D01*
X-2582Y13282D01*
X-2539Y13387D01*
X-2524Y13500D01*
X-2539Y13613D01*
X-2582Y13718D01*
X-2652Y13809D01*
X-2742Y13878D01*
X-2848Y13922D01*
X-2961Y13937D01*
D02*
G37*
G36*
X-6800Y13637D02*
X-6913Y13622D01*
X-7018Y13578D01*
X-7109Y13509D01*
X-7178Y13418D01*
X-7222Y13313D01*
X-7237Y13200D01*
X-7222Y13087D01*
X-7178Y12982D01*
X-7109Y12891D01*
X-7018Y12822D01*
X-6913Y12778D01*
X-6800Y12763D01*
X-6687Y12778D01*
X-6582Y12822D01*
X-6491Y12891D01*
X-6422Y12982D01*
X-6378Y13087D01*
X-6363Y13200D01*
X-6378Y13313D01*
X-6422Y13418D01*
X-6491Y13509D01*
X-6582Y13578D01*
X-6687Y13622D01*
X-6800Y13637D01*
D02*
G37*
G36*
X-7800D02*
X-7913Y13622D01*
X-8018Y13578D01*
X-8109Y13509D01*
X-8178Y13418D01*
X-8222Y13313D01*
X-8237Y13200D01*
X-8222Y13087D01*
X-8178Y12982D01*
X-8109Y12891D01*
X-8018Y12822D01*
X-7913Y12778D01*
X-7800Y12763D01*
X-7687Y12778D01*
X-7582Y12822D01*
X-7491Y12891D01*
X-7422Y12982D01*
X-7378Y13087D01*
X-7363Y13200D01*
X-7378Y13313D01*
X-7422Y13418D01*
X-7491Y13509D01*
X-7582Y13578D01*
X-7687Y13622D01*
X-7800Y13637D01*
D02*
G37*
G36*
X11033Y13700D02*
X10891Y13681D01*
X10758Y13626D01*
X10645Y13539D01*
X10557Y13425D01*
X10502Y13292D01*
X10483Y13150D01*
X10502Y13007D01*
X10557Y12875D01*
X10645Y12761D01*
X10758Y12673D01*
X10891Y12618D01*
X11033Y12600D01*
X11176Y12618D01*
X11308Y12673D01*
X11422Y12761D01*
X11510Y12875D01*
X11565Y13007D01*
X11583Y13150D01*
X11565Y13292D01*
X11510Y13425D01*
X11422Y13539D01*
X11308Y13626D01*
X11176Y13681D01*
X11033Y13700D01*
D02*
G37*
G36*
X5719Y15840D02*
X5631Y15828D01*
X5550Y15794D01*
X5480Y15741D01*
X5426Y15671D01*
X5392Y15589D01*
X5381Y15502D01*
X5392Y15415D01*
X5426Y15333D01*
X5480Y15263D01*
X5550Y15210D01*
X5631Y15176D01*
X5719Y15164D01*
X5806Y15176D01*
X5887Y15210D01*
X5957Y15263D01*
X6011Y15333D01*
X6039Y15402D01*
X6238D01*
X6514Y15126D01*
Y13868D01*
X6521Y13830D01*
X6543Y13797D01*
X6882Y13458D01*
X6856Y13425D01*
X6801Y13292D01*
X6783Y13150D01*
X6801Y13007D01*
X6856Y12875D01*
X6944Y12761D01*
X7058Y12673D01*
X7190Y12618D01*
X7333Y12600D01*
X7475Y12618D01*
X7608Y12673D01*
X7722Y12761D01*
X7809Y12875D01*
X7864Y13007D01*
X7883Y13150D01*
X7864Y13292D01*
X7809Y13425D01*
X7722Y13539D01*
X7608Y13626D01*
X7475Y13681D01*
X7333Y13700D01*
X7190Y13681D01*
X7058Y13626D01*
X7024Y13600D01*
X6715Y13910D01*
Y15167D01*
X6707Y15206D01*
X6685Y15238D01*
X6350Y15573D01*
X6318Y15595D01*
X6280Y15602D01*
X6039D01*
X6011Y15671D01*
X5957Y15741D01*
X5887Y15794D01*
X5806Y15828D01*
X5719Y15840D01*
D02*
G37*
G36*
X3039Y12937D02*
X2961D01*
X2848Y12922D01*
X2742Y12878D01*
X2652Y12809D01*
X2582Y12718D01*
X2539Y12613D01*
X2524Y12500D01*
X2539Y12387D01*
X2582Y12282D01*
X2652Y12191D01*
X2742Y12122D01*
X2848Y12078D01*
X2961Y12063D01*
X3039D01*
X3152Y12078D01*
X3258Y12122D01*
X3348Y12191D01*
X3418Y12282D01*
X3461Y12387D01*
X3476Y12500D01*
X3461Y12613D01*
X3418Y12718D01*
X3348Y12809D01*
X3258Y12878D01*
X3152Y12922D01*
X3039Y12937D01*
D02*
G37*
G36*
X-2961D02*
X-3039D01*
X-3152Y12922D01*
X-3258Y12878D01*
X-3348Y12809D01*
X-3418Y12718D01*
X-3461Y12613D01*
X-3476Y12500D01*
X-3461Y12387D01*
X-3418Y12282D01*
X-3348Y12191D01*
X-3258Y12122D01*
X-3152Y12078D01*
X-3039Y12063D01*
X-2961D01*
X-2848Y12078D01*
X-2742Y12122D01*
X-2652Y12191D01*
X-2582Y12282D01*
X-2539Y12387D01*
X-2524Y12500D01*
X-2539Y12613D01*
X-2582Y12718D01*
X-2652Y12809D01*
X-2742Y12878D01*
X-2848Y12922D01*
X-2961Y12937D01*
D02*
G37*
G36*
X-6800Y12637D02*
X-6913Y12622D01*
X-7018Y12578D01*
X-7109Y12509D01*
X-7178Y12418D01*
X-7222Y12313D01*
X-7237Y12200D01*
X-7222Y12087D01*
X-7178Y11982D01*
X-7109Y11891D01*
X-7018Y11822D01*
X-6913Y11778D01*
X-6800Y11763D01*
X-6687Y11778D01*
X-6582Y11822D01*
X-6491Y11891D01*
X-6422Y11982D01*
X-6378Y12087D01*
X-6363Y12200D01*
X-6378Y12313D01*
X-6422Y12418D01*
X-6491Y12509D01*
X-6582Y12578D01*
X-6687Y12622D01*
X-6800Y12637D01*
D02*
G37*
G36*
X-7800D02*
X-7913Y12622D01*
X-8018Y12578D01*
X-8109Y12509D01*
X-8178Y12418D01*
X-8222Y12313D01*
X-8237Y12200D01*
X-8222Y12087D01*
X-8178Y11982D01*
X-8109Y11891D01*
X-8018Y11822D01*
X-7913Y11778D01*
X-7800Y11763D01*
X-7687Y11778D01*
X-7582Y11822D01*
X-7491Y11891D01*
X-7422Y11982D01*
X-7378Y12087D01*
X-7363Y12200D01*
X-7378Y12313D01*
X-7422Y12418D01*
X-7491Y12509D01*
X-7582Y12578D01*
X-7687Y12622D01*
X-7800Y12637D01*
D02*
G37*
G36*
X-8800D02*
X-8913Y12622D01*
X-9018Y12578D01*
X-9109Y12509D01*
X-9178Y12418D01*
X-9222Y12313D01*
X-9237Y12200D01*
X-9222Y12087D01*
X-9178Y11982D01*
X-9109Y11891D01*
X-9018Y11822D01*
X-8913Y11778D01*
X-8800Y11763D01*
X-8687Y11778D01*
X-8582Y11822D01*
X-8491Y11891D01*
X-8422Y11982D01*
X-8378Y12087D01*
X-8363Y12200D01*
X-8378Y12313D01*
X-8422Y12418D01*
X-8491Y12509D01*
X-8582Y12578D01*
X-8687Y12622D01*
X-8800Y12637D01*
D02*
G37*
G36*
X3039Y11937D02*
X2961D01*
X2848Y11922D01*
X2742Y11878D01*
X2652Y11809D01*
X2582Y11718D01*
X2539Y11613D01*
X2524Y11500D01*
X2539Y11387D01*
X2582Y11282D01*
X2652Y11191D01*
X2742Y11122D01*
X2848Y11078D01*
X2961Y11063D01*
X3039D01*
X3152Y11078D01*
X3258Y11122D01*
X3348Y11191D01*
X3418Y11282D01*
X3461Y11387D01*
X3476Y11500D01*
X3461Y11613D01*
X3418Y11718D01*
X3348Y11809D01*
X3258Y11878D01*
X3152Y11922D01*
X3039Y11937D01*
D02*
G37*
G36*
X-2961D02*
X-3039D01*
X-3152Y11922D01*
X-3258Y11878D01*
X-3348Y11809D01*
X-3418Y11718D01*
X-3461Y11613D01*
X-3476Y11500D01*
X-3461Y11387D01*
X-3418Y11282D01*
X-3348Y11191D01*
X-3258Y11122D01*
X-3152Y11078D01*
X-3039Y11063D01*
X-2961D01*
X-2848Y11078D01*
X-2742Y11122D01*
X-2652Y11191D01*
X-2582Y11282D01*
X-2539Y11387D01*
X-2524Y11500D01*
X-2539Y11613D01*
X-2582Y11718D01*
X-2652Y11809D01*
X-2742Y11878D01*
X-2848Y11922D01*
X-2961Y11937D01*
D02*
G37*
G36*
X9433Y11183D02*
X8567D01*
Y10317D01*
X9433D01*
Y11183D01*
D02*
G37*
G36*
X-5567D02*
X-6433D01*
Y10317D01*
X-5567D01*
Y11183D01*
D02*
G37*
G36*
X8000Y11187D02*
X7887Y11172D01*
X7782Y11128D01*
X7691Y11059D01*
X7622Y10968D01*
X7578Y10863D01*
X7563Y10750D01*
X7578Y10637D01*
X7622Y10532D01*
X7691Y10441D01*
X7782Y10372D01*
X7887Y10328D01*
X8000Y10313D01*
X8113Y10328D01*
X8218Y10372D01*
X8309Y10441D01*
X8378Y10532D01*
X8422Y10637D01*
X8437Y10750D01*
X8422Y10863D01*
X8378Y10968D01*
X8309Y11059D01*
X8218Y11128D01*
X8113Y11172D01*
X8000Y11187D01*
D02*
G37*
G36*
X7000D02*
X6887Y11172D01*
X6782Y11128D01*
X6691Y11059D01*
X6622Y10968D01*
X6578Y10863D01*
X6563Y10750D01*
X6578Y10637D01*
X6622Y10532D01*
X6691Y10441D01*
X6782Y10372D01*
X6887Y10328D01*
X7000Y10313D01*
X7113Y10328D01*
X7218Y10372D01*
X7309Y10441D01*
X7378Y10532D01*
X7422Y10637D01*
X7437Y10750D01*
X7422Y10863D01*
X7378Y10968D01*
X7309Y11059D01*
X7218Y11128D01*
X7113Y11172D01*
X7000Y11187D01*
D02*
G37*
G36*
X6000D02*
X5887Y11172D01*
X5782Y11128D01*
X5691Y11059D01*
X5622Y10968D01*
X5578Y10863D01*
X5563Y10750D01*
X5578Y10637D01*
X5622Y10532D01*
X5691Y10441D01*
X5782Y10372D01*
X5887Y10328D01*
X6000Y10313D01*
X6113Y10328D01*
X6218Y10372D01*
X6309Y10441D01*
X6378Y10532D01*
X6422Y10637D01*
X6437Y10750D01*
X6422Y10863D01*
X6378Y10968D01*
X6309Y11059D01*
X6218Y11128D01*
X6113Y11172D01*
X6000Y11187D01*
D02*
G37*
G36*
X-7000D02*
X-7113Y11172D01*
X-7218Y11128D01*
X-7309Y11059D01*
X-7378Y10968D01*
X-7422Y10863D01*
X-7437Y10750D01*
X-7422Y10637D01*
X-7378Y10532D01*
X-7309Y10441D01*
X-7218Y10372D01*
X-7113Y10328D01*
X-7000Y10313D01*
X-6887Y10328D01*
X-6782Y10372D01*
X-6691Y10441D01*
X-6622Y10532D01*
X-6578Y10637D01*
X-6563Y10750D01*
X-6578Y10863D01*
X-6622Y10968D01*
X-6691Y11059D01*
X-6782Y11128D01*
X-6887Y11172D01*
X-7000Y11187D01*
D02*
G37*
G36*
X-8000D02*
X-8113Y11172D01*
X-8218Y11128D01*
X-8309Y11059D01*
X-8378Y10968D01*
X-8422Y10863D01*
X-8437Y10750D01*
X-8422Y10637D01*
X-8378Y10532D01*
X-8309Y10441D01*
X-8218Y10372D01*
X-8113Y10328D01*
X-8000Y10313D01*
X-7887Y10328D01*
X-7782Y10372D01*
X-7691Y10441D01*
X-7622Y10532D01*
X-7578Y10637D01*
X-7563Y10750D01*
X-7578Y10863D01*
X-7622Y10968D01*
X-7691Y11059D01*
X-7782Y11128D01*
X-7887Y11172D01*
X-8000Y11187D01*
D02*
G37*
G36*
X-9000D02*
X-9113Y11172D01*
X-9218Y11128D01*
X-9309Y11059D01*
X-9378Y10968D01*
X-9422Y10863D01*
X-9437Y10750D01*
X-9422Y10637D01*
X-9378Y10532D01*
X-9309Y10441D01*
X-9218Y10372D01*
X-9113Y10328D01*
X-9000Y10313D01*
X-8887Y10328D01*
X-8782Y10372D01*
X-8691Y10441D01*
X-8622Y10532D01*
X-8578Y10637D01*
X-8563Y10750D01*
X-8578Y10863D01*
X-8622Y10968D01*
X-8691Y11059D01*
X-8782Y11128D01*
X-8887Y11172D01*
X-9000Y11187D01*
D02*
G37*
G36*
X3039Y10937D02*
X2961D01*
X2848Y10922D01*
X2742Y10878D01*
X2652Y10809D01*
X2582Y10718D01*
X2539Y10613D01*
X2524Y10500D01*
X2539Y10387D01*
X2582Y10282D01*
X2652Y10191D01*
X2742Y10122D01*
X2848Y10078D01*
X2961Y10063D01*
X3039D01*
X3152Y10078D01*
X3258Y10122D01*
X3348Y10191D01*
X3418Y10282D01*
X3461Y10387D01*
X3476Y10500D01*
X3461Y10613D01*
X3418Y10718D01*
X3348Y10809D01*
X3258Y10878D01*
X3152Y10922D01*
X3039Y10937D01*
D02*
G37*
G36*
X-2961D02*
X-3039D01*
X-3152Y10922D01*
X-3258Y10878D01*
X-3348Y10809D01*
X-3418Y10718D01*
X-3461Y10613D01*
X-3476Y10500D01*
X-3461Y10387D01*
X-3418Y10282D01*
X-3348Y10191D01*
X-3258Y10122D01*
X-3152Y10078D01*
X-3039Y10063D01*
X-2961D01*
X-2848Y10078D01*
X-2742Y10122D01*
X-2652Y10191D01*
X-2582Y10282D01*
X-2539Y10387D01*
X-2524Y10500D01*
X-2539Y10613D01*
X-2582Y10718D01*
X-2652Y10809D01*
X-2742Y10878D01*
X-2848Y10922D01*
X-2961Y10937D01*
D02*
G37*
G36*
X11467Y10428D02*
X11369Y10416D01*
X11278Y10378D01*
X11200Y10318D01*
X11140Y10240D01*
X11103Y10152D01*
X9224D01*
X9186Y10144D01*
X9153Y10122D01*
X7683Y8652D01*
X7549D01*
Y8356D01*
X7805D01*
Y8490D01*
X9266Y9951D01*
X11103D01*
X11140Y9863D01*
X11200Y9784D01*
X11278Y9724D01*
X11369Y9687D01*
X11467Y9674D01*
X11564Y9687D01*
X11655Y9724D01*
X11733Y9784D01*
X11793Y9863D01*
X11831Y9954D01*
X11844Y10051D01*
X11831Y10149D01*
X11793Y10240D01*
X11733Y10318D01*
X11655Y10378D01*
X11564Y10416D01*
X11467Y10428D01*
D02*
G37*
G36*
X3039Y9937D02*
X2961D01*
X2848Y9922D01*
X2742Y9878D01*
X2652Y9809D01*
X2582Y9718D01*
X2539Y9613D01*
X2524Y9500D01*
X2539Y9387D01*
X2582Y9282D01*
X2652Y9191D01*
X2742Y9122D01*
X2848Y9078D01*
X2961Y9063D01*
X3039D01*
X3152Y9078D01*
X3258Y9122D01*
X3348Y9191D01*
X3418Y9282D01*
X3461Y9387D01*
X3476Y9500D01*
X3461Y9613D01*
X3418Y9718D01*
X3348Y9809D01*
X3258Y9878D01*
X3152Y9922D01*
X3039Y9937D01*
D02*
G37*
G36*
X-2961D02*
X-3039D01*
X-3152Y9922D01*
X-3258Y9878D01*
X-3348Y9809D01*
X-3418Y9718D01*
X-3461Y9613D01*
X-3476Y9500D01*
X-3461Y9387D01*
X-3418Y9282D01*
X-3348Y9191D01*
X-3258Y9122D01*
X-3152Y9078D01*
X-3039Y9063D01*
X-2961D01*
X-2848Y9078D01*
X-2742Y9122D01*
X-2652Y9191D01*
X-2582Y9282D01*
X-2539Y9387D01*
X-2524Y9500D01*
X-2539Y9613D01*
X-2582Y9718D01*
X-2652Y9809D01*
X-2742Y9878D01*
X-2848Y9922D01*
X-2961Y9937D01*
D02*
G37*
G36*
X-11191Y10428D02*
X-11288Y10416D01*
X-11379Y10378D01*
X-11458Y10318D01*
X-11518Y10240D01*
X-11555Y10149D01*
X-11568Y10051D01*
X-11555Y9954D01*
X-11518Y9863D01*
X-11458Y9784D01*
X-11379Y9724D01*
X-11288Y9687D01*
X-11191Y9674D01*
X-11093Y9687D01*
X-11005Y9723D01*
X-9715Y8433D01*
X-9682Y8411D01*
X-9644Y8404D01*
X-7805D01*
Y8356D01*
X-7549D01*
Y8652D01*
X-7805D01*
Y8604D01*
X-9602D01*
X-10863Y9865D01*
X-10826Y9954D01*
X-10814Y10051D01*
X-10826Y10149D01*
X-10864Y10240D01*
X-10924Y10318D01*
X-11002Y10378D01*
X-11093Y10416D01*
X-11191Y10428D01*
D02*
G37*
G36*
X-778Y8792D02*
X-865Y8781D01*
X-946Y8747D01*
X-1016Y8693D01*
X-1070Y8623D01*
X-1098Y8555D01*
X-2045D01*
X-2084Y8547D01*
X-2116Y8526D01*
X-2757Y7885D01*
X-2848Y7922D01*
X-2961Y7937D01*
X-3039D01*
X-3152Y7922D01*
X-3258Y7878D01*
X-3348Y7809D01*
X-3418Y7718D01*
X-3461Y7613D01*
X-3476Y7500D01*
X-3461Y7387D01*
X-3418Y7282D01*
X-3348Y7191D01*
X-3258Y7122D01*
X-3152Y7078D01*
X-3039Y7063D01*
X-2961D01*
X-2848Y7078D01*
X-2742Y7122D01*
X-2652Y7191D01*
X-2582Y7282D01*
X-2539Y7387D01*
X-2524Y7500D01*
X-2539Y7613D01*
X-2582Y7718D01*
X-2607Y7751D01*
X-2004Y8354D01*
X-1098D01*
X-1070Y8286D01*
X-1016Y8216D01*
X-946Y8162D01*
X-865Y8129D01*
X-778Y8117D01*
X-690Y8129D01*
X-609Y8162D01*
X-539Y8216D01*
X-485Y8286D01*
X-452Y8367D01*
X-440Y8455D01*
X-452Y8542D01*
X-485Y8623D01*
X-539Y8693D01*
X-609Y8747D01*
X-690Y8781D01*
X-778Y8792D01*
D02*
G37*
G36*
X3079Y8937D02*
X2921D01*
X2808Y8922D01*
X2703Y8878D01*
X2612Y8809D01*
X2543Y8718D01*
X2499Y8613D01*
X2484Y8500D01*
X2499Y8387D01*
X2543Y8282D01*
X2612Y8191D01*
X2703Y8122D01*
X2808Y8078D01*
X2921Y8063D01*
X3079D01*
X3192Y8078D01*
X3297Y8122D01*
X3388Y8191D01*
X3457Y8282D01*
X3501Y8387D01*
X3516Y8500D01*
X3501Y8613D01*
X3457Y8718D01*
X3388Y8809D01*
X3297Y8878D01*
X3192Y8922D01*
X3079Y8937D01*
D02*
G37*
G36*
X-2961D02*
X-3039D01*
X-3152Y8922D01*
X-3258Y8878D01*
X-3348Y8809D01*
X-3418Y8718D01*
X-3461Y8613D01*
X-3476Y8500D01*
X-3461Y8387D01*
X-3418Y8282D01*
X-3348Y8191D01*
X-3258Y8122D01*
X-3152Y8078D01*
X-3039Y8063D01*
X-2961D01*
X-2848Y8078D01*
X-2742Y8122D01*
X-2652Y8191D01*
X-2582Y8282D01*
X-2539Y8387D01*
X-2524Y8500D01*
X-2539Y8613D01*
X-2582Y8718D01*
X-2652Y8809D01*
X-2742Y8878D01*
X-2848Y8922D01*
X-2961Y8937D01*
D02*
G37*
G36*
X11467Y8194D02*
X11369Y8181D01*
X11278Y8144D01*
X11200Y8084D01*
X11140Y8006D01*
X11103Y7917D01*
X8722D01*
X8684Y7910D01*
X8651Y7888D01*
X7683Y6919D01*
X7549D01*
Y6624D01*
X7805D01*
Y6758D01*
X8764Y7717D01*
X11103D01*
X11140Y7628D01*
X11200Y7550D01*
X11278Y7490D01*
X11369Y7453D01*
X11467Y7440D01*
X11564Y7453D01*
X11655Y7490D01*
X11733Y7550D01*
X11793Y7628D01*
X11831Y7719D01*
X11844Y7817D01*
X11831Y7915D01*
X11793Y8006D01*
X11733Y8084D01*
X11655Y8144D01*
X11564Y8181D01*
X11467Y8194D01*
D02*
G37*
G36*
X-1516Y7975D02*
X-1603Y7964D01*
X-1685Y7930D01*
X-1754Y7876D01*
X-1808Y7807D01*
X-1842Y7725D01*
X-1853Y7638D01*
X-1842Y7550D01*
X-1813Y7482D01*
X-2000Y7295D01*
X-2022Y7263D01*
X-2029Y7224D01*
Y760D01*
X-2189Y600D01*
X-2537D01*
X-2539Y613D01*
X-2582Y718D01*
X-2652Y809D01*
X-2742Y878D01*
X-2848Y922D01*
X-2961Y937D01*
X-3039D01*
X-3152Y922D01*
X-3258Y878D01*
X-3348Y809D01*
X-3418Y718D01*
X-3461Y613D01*
X-3476Y500D01*
X-3461Y387D01*
X-3418Y282D01*
X-3348Y191D01*
X-3258Y122D01*
X-3152Y78D01*
X-3039Y63D01*
X-2961D01*
X-2848Y78D01*
X-2742Y122D01*
X-2652Y191D01*
X-2582Y282D01*
X-2539Y387D01*
X-2537Y400D01*
X-2148D01*
X-2109Y407D01*
X-2077Y429D01*
X-1858Y648D01*
X-1836Y680D01*
X-1829Y719D01*
Y7183D01*
X-1672Y7340D01*
X-1603Y7312D01*
X-1516Y7300D01*
X-1428Y7312D01*
X-1347Y7345D01*
X-1277Y7399D01*
X-1223Y7469D01*
X-1190Y7550D01*
X-1178Y7638D01*
X-1190Y7725D01*
X-1223Y7807D01*
X-1277Y7876D01*
X-1347Y7930D01*
X-1428Y7964D01*
X-1516Y7975D01*
D02*
G37*
G36*
X-11211Y8194D02*
X-11308Y8181D01*
X-11399Y8144D01*
X-11477Y8084D01*
X-11537Y8006D01*
X-11575Y7915D01*
X-11588Y7817D01*
X-11575Y7719D01*
X-11537Y7628D01*
X-11477Y7550D01*
X-11399Y7490D01*
X-11308Y7453D01*
X-11211Y7440D01*
X-11113Y7453D01*
X-11025Y7489D01*
X-10236Y6701D01*
X-10204Y6679D01*
X-10165Y6671D01*
X-7805D01*
Y6624D01*
X-7549D01*
Y6919D01*
X-7805D01*
Y6872D01*
X-10124D01*
X-10883Y7631D01*
X-10846Y7719D01*
X-10833Y7817D01*
X-10846Y7915D01*
X-10884Y8006D01*
X-10944Y8084D01*
X-11022Y8144D01*
X-11113Y8181D01*
X-11211Y8194D01*
D02*
G37*
G36*
X-2961Y6937D02*
X-3039D01*
X-3152Y6922D01*
X-3258Y6878D01*
X-3348Y6809D01*
X-3418Y6718D01*
X-3461Y6613D01*
X-3476Y6500D01*
X-3461Y6387D01*
X-3418Y6282D01*
X-3348Y6191D01*
X-3258Y6122D01*
X-3152Y6078D01*
X-3039Y6063D01*
X-2961D01*
X-2848Y6078D01*
X-2742Y6122D01*
X-2652Y6191D01*
X-2582Y6282D01*
X-2539Y6387D01*
X-2524Y6500D01*
X-2539Y6613D01*
X-2582Y6718D01*
X-2652Y6809D01*
X-2742Y6878D01*
X-2848Y6922D01*
X-2961Y6937D01*
D02*
G37*
G36*
X3020Y7996D02*
X2980D01*
X2852Y7979D01*
X2732Y7930D01*
X2629Y7851D01*
X2550Y7748D01*
X2501Y7628D01*
X2484Y7500D01*
X2501Y7372D01*
X2550Y7252D01*
X2629Y7149D01*
X2732Y7070D01*
X2820Y7034D01*
Y6980D01*
X2742Y6947D01*
X2635Y6865D01*
X2553Y6758D01*
X2501Y6634D01*
X2484Y6500D01*
X2501Y6366D01*
X2553Y6242D01*
X2635Y6135D01*
X2742Y6053D01*
X2866Y6001D01*
X2974Y5987D01*
X2977Y5987D01*
X2975Y5956D01*
X2934Y5933D01*
X2848Y5922D01*
X2742Y5878D01*
X2652Y5809D01*
X2582Y5718D01*
X2539Y5613D01*
X2524Y5500D01*
X2539Y5387D01*
X2582Y5282D01*
X2652Y5191D01*
X2742Y5122D01*
X2848Y5078D01*
X2961Y5063D01*
X3039D01*
X3152Y5078D01*
X3258Y5122D01*
X3348Y5191D01*
X3418Y5282D01*
X3461Y5387D01*
X3476Y5500D01*
X3461Y5613D01*
X3418Y5718D01*
X3348Y5809D01*
X3258Y5878D01*
X3152Y5922D01*
X3066Y5933D01*
X3025Y5956D01*
X3023Y5987D01*
X3026Y5987D01*
X3134Y6001D01*
X3258Y6053D01*
X3365Y6135D01*
X3447Y6242D01*
X3499Y6366D01*
X3516Y6500D01*
X3499Y6634D01*
X3447Y6758D01*
X3365Y6865D01*
X3258Y6947D01*
X3180Y6980D01*
Y7034D01*
X3268Y7070D01*
X3371Y7149D01*
X3450Y7252D01*
X3499Y7372D01*
X3516Y7500D01*
X3499Y7628D01*
X3450Y7748D01*
X3371Y7851D01*
X3268Y7930D01*
X3148Y7979D01*
X3020Y7996D01*
D02*
G37*
G36*
X-2961Y5937D02*
X-3039D01*
X-3152Y5922D01*
X-3258Y5878D01*
X-3348Y5809D01*
X-3418Y5718D01*
X-3461Y5613D01*
X-3476Y5500D01*
X-3461Y5387D01*
X-3418Y5282D01*
X-3348Y5191D01*
X-3258Y5122D01*
X-3152Y5078D01*
X-3039Y5063D01*
X-2961D01*
X-2848Y5078D01*
X-2742Y5122D01*
X-2652Y5191D01*
X-2582Y5282D01*
X-2539Y5387D01*
X-2524Y5500D01*
X-2539Y5613D01*
X-2582Y5718D01*
X-2652Y5809D01*
X-2742Y5878D01*
X-2848Y5922D01*
X-2961Y5937D01*
D02*
G37*
G36*
X3039Y4937D02*
X2961D01*
X2848Y4922D01*
X2742Y4878D01*
X2652Y4809D01*
X2582Y4718D01*
X2539Y4613D01*
X2524Y4500D01*
X2539Y4387D01*
X2582Y4282D01*
X2652Y4191D01*
X2742Y4122D01*
X2848Y4078D01*
X2961Y4063D01*
X3039D01*
X3152Y4078D01*
X3258Y4122D01*
X3348Y4191D01*
X3418Y4282D01*
X3461Y4387D01*
X3476Y4500D01*
X3461Y4613D01*
X3418Y4718D01*
X3348Y4809D01*
X3258Y4878D01*
X3152Y4922D01*
X3039Y4937D01*
D02*
G37*
G36*
X-7195Y8652D02*
X-7451D01*
Y8356D01*
X-7317D01*
X-3474Y4514D01*
X-3476Y4500D01*
X-3461Y4387D01*
X-3418Y4282D01*
X-3348Y4191D01*
X-3258Y4122D01*
X-3152Y4078D01*
X-3039Y4063D01*
X-2961D01*
X-2848Y4078D01*
X-2742Y4122D01*
X-2652Y4191D01*
X-2582Y4282D01*
X-2539Y4387D01*
X-2524Y4500D01*
X-2539Y4613D01*
X-2582Y4718D01*
X-2652Y4809D01*
X-2742Y4878D01*
X-2848Y4922D01*
X-2961Y4937D01*
X-3039D01*
X-3152Y4922D01*
X-3258Y4878D01*
X-3348Y4809D01*
X-3385Y4761D01*
X-3435Y4758D01*
X-7195Y8518D01*
Y8652D01*
D02*
G37*
G36*
X-270Y19097D02*
X-357Y19086D01*
X-439Y19052D01*
X-509Y18999D01*
X-562Y18929D01*
X-596Y18847D01*
X-608Y18760D01*
X-596Y18672D01*
X-562Y18591D01*
X-509Y18521D01*
X-439Y18468D01*
X-411Y18456D01*
Y11500D01*
X-400Y11447D01*
X-369Y11401D01*
X745Y10286D01*
Y4547D01*
X756Y4493D01*
X786Y4448D01*
X1834Y3401D01*
X1879Y3370D01*
X1933Y3359D01*
X2550D01*
X2582Y3282D01*
X2652Y3191D01*
X2742Y3122D01*
X2848Y3078D01*
X2961Y3063D01*
X3039D01*
X3152Y3078D01*
X3258Y3122D01*
X3348Y3191D01*
X3418Y3282D01*
X3461Y3387D01*
X3476Y3500D01*
X3461Y3613D01*
X3418Y3718D01*
X3348Y3809D01*
X3258Y3878D01*
X3152Y3922D01*
X3039Y3937D01*
X2961D01*
X2848Y3922D01*
X2742Y3878D01*
X2652Y3809D01*
X2582Y3718D01*
X2550Y3641D01*
X1991D01*
X1026Y4605D01*
Y10344D01*
X1016Y10398D01*
X985Y10444D01*
X-130Y11559D01*
Y18456D01*
X-101Y18468D01*
X-31Y18521D01*
X22Y18591D01*
X56Y18672D01*
X68Y18760D01*
X56Y18847D01*
X22Y18929D01*
X-31Y18999D01*
X-101Y19052D01*
X-183Y19086D01*
X-270Y19097D01*
D02*
G37*
G36*
X-7195Y6919D02*
X-7451D01*
Y6624D01*
X-7317D01*
X-4122Y3429D01*
X-4090Y3407D01*
X-4051Y3400D01*
X-3463D01*
X-3461Y3387D01*
X-3418Y3282D01*
X-3348Y3191D01*
X-3258Y3122D01*
X-3152Y3078D01*
X-3039Y3063D01*
X-2961D01*
X-2848Y3078D01*
X-2742Y3122D01*
X-2652Y3191D01*
X-2582Y3282D01*
X-2539Y3387D01*
X-2524Y3500D01*
X-2539Y3613D01*
X-2582Y3718D01*
X-2652Y3809D01*
X-2742Y3878D01*
X-2848Y3922D01*
X-2961Y3937D01*
X-3039D01*
X-3152Y3922D01*
X-3258Y3878D01*
X-3348Y3809D01*
X-3418Y3718D01*
X-3461Y3613D01*
X-3463Y3600D01*
X-4010D01*
X-7195Y6786D01*
Y6919D01*
D02*
G37*
G36*
X7451Y8652D02*
X7195D01*
Y8518D01*
X3728Y5051D01*
X3706Y5019D01*
X3699Y4980D01*
Y3341D01*
X3243Y2885D01*
X3152Y2922D01*
X3039Y2937D01*
X2961D01*
X2848Y2922D01*
X2742Y2878D01*
X2652Y2809D01*
X2582Y2718D01*
X2539Y2613D01*
X2524Y2500D01*
X2539Y2387D01*
X2582Y2282D01*
X2652Y2191D01*
X2742Y2122D01*
X2848Y2078D01*
X2961Y2063D01*
X3039D01*
X3152Y2078D01*
X3258Y2122D01*
X3348Y2191D01*
X3418Y2282D01*
X3461Y2387D01*
X3476Y2500D01*
X3461Y2613D01*
X3418Y2718D01*
X3393Y2751D01*
X3870Y3228D01*
X3892Y3261D01*
X3900Y3299D01*
Y4939D01*
X7317Y8356D01*
X7451D01*
Y8652D01*
D02*
G37*
G36*
X-2961Y2937D02*
X-3039D01*
X-3152Y2922D01*
X-3258Y2878D01*
X-3348Y2809D01*
X-3418Y2718D01*
X-3461Y2613D01*
X-3476Y2500D01*
X-3461Y2387D01*
X-3418Y2282D01*
X-3348Y2191D01*
X-3258Y2122D01*
X-3152Y2078D01*
X-3039Y2063D01*
X-2961D01*
X-2848Y2078D01*
X-2742Y2122D01*
X-2652Y2191D01*
X-2582Y2282D01*
X-2539Y2387D01*
X-2524Y2500D01*
X-2539Y2613D01*
X-2582Y2718D01*
X-2652Y2809D01*
X-2742Y2878D01*
X-2848Y2922D01*
X-2961Y2937D01*
D02*
G37*
G36*
X7451Y6919D02*
X7195D01*
Y6786D01*
X5529Y5120D01*
X5508Y5088D01*
X5500Y5049D01*
Y4628D01*
X3768Y2896D01*
X3746Y2863D01*
X3738Y2825D01*
Y2380D01*
X3243Y1885D01*
X3152Y1922D01*
X3039Y1937D01*
X2961D01*
X2848Y1922D01*
X2742Y1878D01*
X2652Y1809D01*
X2582Y1718D01*
X2539Y1613D01*
X2524Y1500D01*
X2539Y1387D01*
X2582Y1282D01*
X2652Y1191D01*
X2742Y1122D01*
X2848Y1078D01*
X2961Y1063D01*
X3039D01*
X3152Y1078D01*
X3258Y1122D01*
X3348Y1191D01*
X3418Y1282D01*
X3461Y1387D01*
X3476Y1500D01*
X3461Y1613D01*
X3418Y1718D01*
X3393Y1751D01*
X3910Y2268D01*
X3931Y2300D01*
X3939Y2339D01*
Y2783D01*
X5671Y4516D01*
X5693Y4548D01*
X5701Y4587D01*
Y5008D01*
X7317Y6624D01*
X7451D01*
Y6919D01*
D02*
G37*
G36*
X9000Y1937D02*
X8887Y1922D01*
X8782Y1878D01*
X8691Y1809D01*
X8622Y1718D01*
X8578Y1613D01*
X8563Y1500D01*
X8578Y1387D01*
X8622Y1282D01*
X8691Y1191D01*
X8782Y1122D01*
X8887Y1078D01*
X9000Y1063D01*
X9113Y1078D01*
X9218Y1122D01*
X9309Y1191D01*
X9378Y1282D01*
X9422Y1387D01*
X9437Y1500D01*
X9422Y1613D01*
X9378Y1718D01*
X9309Y1809D01*
X9218Y1878D01*
X9113Y1922D01*
X9000Y1937D01*
D02*
G37*
G36*
X8000D02*
X7887Y1922D01*
X7782Y1878D01*
X7691Y1809D01*
X7622Y1718D01*
X7578Y1613D01*
X7563Y1500D01*
X7578Y1387D01*
X7622Y1282D01*
X7691Y1191D01*
X7782Y1122D01*
X7887Y1078D01*
X8000Y1063D01*
X8113Y1078D01*
X8218Y1122D01*
X8309Y1191D01*
X8378Y1282D01*
X8422Y1387D01*
X8437Y1500D01*
X8422Y1613D01*
X8378Y1718D01*
X8309Y1809D01*
X8218Y1878D01*
X8113Y1922D01*
X8000Y1937D01*
D02*
G37*
G36*
X7000D02*
X6887Y1922D01*
X6782Y1878D01*
X6691Y1809D01*
X6622Y1718D01*
X6578Y1613D01*
X6563Y1500D01*
X6578Y1387D01*
X6622Y1282D01*
X6691Y1191D01*
X6782Y1122D01*
X6887Y1078D01*
X7000Y1063D01*
X7113Y1078D01*
X7218Y1122D01*
X7309Y1191D01*
X7378Y1282D01*
X7422Y1387D01*
X7437Y1500D01*
X7422Y1613D01*
X7378Y1718D01*
X7309Y1809D01*
X7218Y1878D01*
X7113Y1922D01*
X7000Y1937D01*
D02*
G37*
G36*
X-6000D02*
X-6113Y1922D01*
X-6218Y1878D01*
X-6309Y1809D01*
X-6378Y1718D01*
X-6422Y1613D01*
X-6437Y1500D01*
X-6422Y1387D01*
X-6378Y1282D01*
X-6309Y1191D01*
X-6218Y1122D01*
X-6113Y1078D01*
X-6000Y1063D01*
X-5887Y1078D01*
X-5782Y1122D01*
X-5691Y1191D01*
X-5622Y1282D01*
X-5578Y1387D01*
X-5563Y1500D01*
X-5578Y1613D01*
X-5622Y1718D01*
X-5691Y1809D01*
X-5782Y1878D01*
X-5887Y1922D01*
X-6000Y1937D01*
D02*
G37*
G36*
X-7000D02*
X-7113Y1922D01*
X-7218Y1878D01*
X-7309Y1809D01*
X-7378Y1718D01*
X-7422Y1613D01*
X-7437Y1500D01*
X-7422Y1387D01*
X-7378Y1282D01*
X-7309Y1191D01*
X-7218Y1122D01*
X-7113Y1078D01*
X-7000Y1063D01*
X-6887Y1078D01*
X-6782Y1122D01*
X-6691Y1191D01*
X-6622Y1282D01*
X-6578Y1387D01*
X-6563Y1500D01*
X-6578Y1613D01*
X-6622Y1718D01*
X-6691Y1809D01*
X-6782Y1878D01*
X-6887Y1922D01*
X-7000Y1937D01*
D02*
G37*
G36*
X-8000D02*
X-8113Y1922D01*
X-8218Y1878D01*
X-8309Y1809D01*
X-8378Y1718D01*
X-8422Y1613D01*
X-8437Y1500D01*
X-8422Y1387D01*
X-8378Y1282D01*
X-8309Y1191D01*
X-8218Y1122D01*
X-8113Y1078D01*
X-8000Y1063D01*
X-7887Y1078D01*
X-7782Y1122D01*
X-7691Y1191D01*
X-7622Y1282D01*
X-7578Y1387D01*
X-7563Y1500D01*
X-7578Y1613D01*
X-7622Y1718D01*
X-7691Y1809D01*
X-7782Y1878D01*
X-7887Y1922D01*
X-8000Y1937D01*
D02*
G37*
G36*
X3256Y933D02*
X2744D01*
X2528Y717D01*
Y283D01*
X2744Y67D01*
X3256D01*
X3472Y283D01*
Y717D01*
X3256Y933D01*
D02*
G37*
G36*
X5914Y20692D02*
X5826Y20680D01*
X5745Y20647D01*
X5675Y20593D01*
X5621Y20523D01*
X5588Y20442D01*
X5576Y20354D01*
X5588Y20267D01*
X5621Y20186D01*
X5675Y20116D01*
X5745Y20062D01*
X5826Y20028D01*
X5914Y20017D01*
X6001Y20028D01*
X6029Y20040D01*
X6090Y19979D01*
X6135Y19949D01*
X6189Y19938D01*
X6585D01*
Y19724D01*
X7451D01*
Y20433D01*
X6585D01*
Y20219D01*
X6274D01*
X6239Y20266D01*
X6240Y20267D01*
X6251Y20354D01*
X6240Y20442D01*
X6206Y20523D01*
X6152Y20593D01*
X6082Y20647D01*
X6001Y20680D01*
X5914Y20692D01*
D02*
G37*
%LPD*%
D10*
X1181Y13150D02*
Y14288D01*
X1393Y14500D01*
X3000D01*
X-11811Y177D02*
Y1575D01*
Y79D02*
Y177D01*
X-11909Y-20D02*
X-11811Y79D01*
Y1575D02*
X-10807Y2579D01*
X-11909Y-20D02*
X-11900Y-30D01*
X-10807Y2579D02*
X-5876D01*
X3000Y6500D02*
X3100D01*
D13*
X-7677Y8504D02*
D03*
X-7323D02*
D03*
X7677D02*
D03*
X7323D02*
D03*
X7677Y6772D02*
D03*
X7323D02*
D03*
X-7677D02*
D03*
X-7323D02*
D03*
X8130Y18169D02*
D03*
X7776D02*
D03*
X6934Y19134D02*
D03*
X6580D02*
D03*
X7012Y18642D02*
D03*
X7367D02*
D03*
X7736Y17726D02*
D03*
X8091D02*
D03*
X8091Y17283D02*
D03*
X7736D02*
D03*
D14*
X7677Y16240D02*
D03*
Y15886D02*
D03*
X709Y16565D02*
D03*
Y16211D02*
D03*
X1644Y16565D02*
D03*
Y16211D02*
D03*
X5949Y18238D02*
D03*
Y18593D02*
D03*
X7205Y15886D02*
D03*
Y16240D02*
D03*
D15*
X6722Y17431D02*
D03*
D16*
X6427Y18041D02*
D03*
X6624D02*
D03*
X6821D02*
D03*
X7018D02*
D03*
Y16821D02*
D03*
X6821D02*
D03*
X6624D02*
D03*
X6427D02*
D03*
D17*
X7333Y17726D02*
D03*
Y17530D02*
D03*
Y17333D02*
D03*
Y17136D02*
D03*
X6112D02*
D03*
Y17333D02*
D03*
Y17530D02*
D03*
Y17726D02*
D03*
D18*
X7018Y20079D02*
D03*
X9144D02*
D03*
D19*
X12500Y5581D02*
D03*
Y1919D02*
D03*
X-12500Y5581D02*
D03*
Y1919D02*
D03*
D41*
X8722Y7817D02*
X11467D01*
X7677Y6772D02*
X8722Y7817D01*
X9224Y10051D02*
X11467D01*
X7677Y8504D02*
X9224Y10051D01*
X5600Y5049D02*
X7323Y6772D01*
X5600Y4587D02*
Y5049D01*
X3839Y2825D02*
X5600Y4587D01*
X3839Y2339D02*
Y2825D01*
X3000Y1500D02*
X3839Y2339D01*
X3000Y2500D02*
X3799Y3299D01*
Y4980D01*
X7323Y8504D01*
X-11211Y7817D02*
X-10165Y6772D01*
X-7677D01*
X-11191Y10051D02*
X-9644Y8504D01*
X-7677D01*
X-4051Y3500D02*
X-3000D01*
X-7323Y6772D02*
X-4051Y3500D01*
X-3319Y4500D02*
X-3000D01*
X-7323Y8504D02*
X-3319Y4500D01*
X5949Y18593D02*
Y18892D01*
X6217Y19160D01*
X7677Y16240D02*
Y16791D01*
Y15686D02*
Y15886D01*
X7205Y15669D02*
Y15886D01*
Y16240D02*
Y16634D01*
X8091Y17283D02*
X8789Y16585D01*
Y16124D02*
Y16585D01*
Y16124D02*
X9075Y15839D01*
X10553D01*
X10984Y16270D01*
X7333Y17136D02*
X7677Y16791D01*
X7018Y16821D02*
X7205Y16634D01*
X5949Y18238D02*
X6112Y18075D01*
Y17726D02*
Y18075D01*
X8381Y14493D02*
X10714D01*
X7205Y15669D02*
X8381Y14493D01*
X10714D02*
X11594Y15374D01*
Y16474D01*
X10315Y14862D02*
X10732Y15280D01*
X8501Y14862D02*
X10315D01*
X7677Y15686D02*
X8501Y14862D01*
X6614Y13868D02*
X7333Y13150D01*
X10789Y17280D02*
X11594Y16474D01*
X9232Y17280D02*
Y18888D01*
X8612Y19508D02*
X9232Y18888D01*
X7136Y18159D02*
X7726D01*
X8180Y18169D02*
X8691Y17659D01*
X8130Y18169D02*
X8180D01*
X8732Y18280D02*
Y18607D01*
X8206Y19134D02*
X8732Y18607D01*
X10232Y17280D02*
X10789D01*
X9008Y16809D02*
X9703D01*
X8091Y17726D02*
X9008Y16809D01*
X9703D02*
X10232Y16280D01*
X7490Y17530D02*
X7736Y17283D01*
X7333Y17530D02*
X7490D01*
X7333Y17726D02*
X7736D01*
X7726Y18159D02*
X7736Y18169D01*
X7961Y18642D02*
X7982Y18620D01*
X7367Y18642D02*
X7961D01*
X6348Y19508D02*
X8612D01*
X6217Y19377D02*
X6348Y19508D01*
X6217Y19160D02*
Y19377D01*
X7018Y18041D02*
X7136Y18159D01*
X6624Y18041D02*
Y18504D01*
X6762Y18642D01*
X7012D01*
X6427Y18981D02*
X6580Y19134D01*
X6427Y18041D02*
Y18981D01*
X6934Y19134D02*
X8206D01*
X6132Y16821D02*
X6427D01*
X4811Y15500D02*
X6132Y16821D01*
X3000Y15500D02*
X4811D01*
X5463Y17136D02*
X6112D01*
X3593Y19006D02*
X5463Y17136D01*
X3593Y19006D02*
Y19809D01*
X3166Y20236D02*
X3593Y19809D01*
X1093Y20236D02*
X3166D01*
X236Y19380D02*
X1093Y20236D01*
X2100Y11992D02*
X4226D01*
X2077Y11968D02*
X2100Y11992D01*
X236Y16674D02*
Y19380D01*
Y16674D02*
X699Y16211D01*
X709D01*
X1644Y17106D02*
X2037Y17500D01*
X1644Y16565D02*
Y17106D01*
X2037Y17500D02*
X3000D01*
X1102D02*
X2037D01*
X-3000Y7500D02*
X-2045Y8455D01*
X-778D01*
X-3000Y500D02*
X-2148D01*
X-1929Y719D01*
Y7224D01*
X-1516Y7638D01*
X1941Y15500D02*
X3000D01*
X1644Y15797D02*
X1941Y15500D01*
X1644Y15797D02*
Y16211D01*
X709Y15184D02*
X1393Y14500D01*
X709Y15184D02*
Y16211D01*
Y17106D02*
X1102Y17500D01*
X709Y16565D02*
Y17106D01*
X6614Y13868D02*
Y15167D01*
X6280Y15502D02*
X6614Y15167D01*
X5719Y15502D02*
X6280D01*
D42*
X6189Y20079D02*
X7018D01*
X5914Y20354D02*
X6189Y20079D01*
X5384Y19498D02*
X5630Y19252D01*
X5384Y19498D02*
Y19828D01*
X4512Y20700D02*
X5384Y19828D01*
X-8500Y20700D02*
X4512D01*
X1933Y3500D02*
X3000D01*
X886Y4547D02*
X1933Y3500D01*
X886Y4547D02*
Y10344D01*
X-270Y11500D02*
X886Y10344D01*
X-270Y11500D02*
Y18760D01*
X-14213Y6299D02*
X-13712Y6800D01*
X-14213Y1004D02*
Y6299D01*
X-13712Y6800D02*
X-11900D01*
X-11800Y13700D02*
Y17400D01*
Y13700D02*
X-11300Y13200D01*
X-11800Y17400D02*
X-8500Y20700D01*
X-11300Y13200D02*
X-9800D01*
X-11800Y6900D02*
Y13700D01*
X-11900Y6800D02*
X-11800Y6900D01*
D43*
X-11191Y11051D02*
D03*
X-11211Y8817D02*
D03*
X11467D02*
D03*
X11467Y11051D02*
D03*
D44*
X-11191Y10051D02*
D03*
X-11211Y7817D02*
D03*
X11467D02*
D03*
X11467Y10051D02*
D03*
D45*
X4469Y19449D02*
D03*
Y16782D02*
D03*
D46*
X7333Y13150D02*
D03*
X9183D02*
D03*
X11033D02*
D03*
D47*
X9732Y18280D02*
D03*
X10232Y17280D02*
D03*
X10732Y18280D02*
D03*
X9232Y17280D02*
D03*
X8732Y18280D02*
D03*
X10732Y15280D02*
D03*
X10232Y16280D02*
D03*
X8732Y15280D02*
D03*
X9232Y16280D02*
D03*
X9732Y15280D02*
D03*
X8159Y16378D02*
D03*
X9732Y17795D02*
D03*
X10984Y16270D02*
D03*
X8691Y17659D02*
D03*
X7982Y18620D02*
D03*
D48*
X-9800Y12200D02*
D03*
Y13200D02*
D03*
X-9000Y1500D02*
D03*
X6000D02*
D03*
X-3000D02*
D03*
X3000Y6500D02*
D03*
Y19500D02*
D03*
Y18500D02*
D03*
X-12500Y3000D02*
D03*
Y4200D02*
D03*
X12500Y4300D02*
D03*
Y3200D02*
D03*
D49*
X-8800Y12200D02*
D03*
Y13200D02*
D03*
X-7800Y12200D02*
D03*
Y13200D02*
D03*
X-6800Y12200D02*
D03*
Y13200D02*
D03*
X-6000Y1500D02*
D03*
X-7000D02*
D03*
X-8000D02*
D03*
X-9000Y10750D02*
D03*
X-8000D02*
D03*
X-7000D02*
D03*
X9000Y1500D02*
D03*
X8000D02*
D03*
X7000D02*
D03*
X6000Y10750D02*
D03*
X7000D02*
D03*
X8000D02*
D03*
D50*
X-6000D02*
D03*
X9000D02*
D03*
D51*
X-3000Y19500D02*
D03*
Y17500D02*
D03*
Y16500D02*
D03*
Y15500D02*
D03*
Y14500D02*
D03*
Y12500D02*
D03*
Y10500D02*
D03*
Y8500D02*
D03*
Y6500D02*
D03*
Y4500D02*
D03*
Y2500D02*
D03*
Y5500D02*
D03*
Y3500D02*
D03*
Y500D02*
D03*
Y7500D02*
D03*
Y9500D02*
D03*
Y11500D02*
D03*
Y13500D02*
D03*
Y18500D02*
D03*
X3000Y1500D02*
D03*
Y10500D02*
D03*
Y12500D02*
D03*
Y16500D02*
D03*
Y14500D02*
D03*
Y17500D02*
D03*
Y15500D02*
D03*
Y13500D02*
D03*
Y11500D02*
D03*
Y9500D02*
D03*
Y5500D02*
D03*
Y4500D02*
D03*
Y3500D02*
D03*
Y2500D02*
D03*
D52*
Y8500D02*
D03*
D53*
Y7500D02*
D03*
D54*
Y500D02*
D03*
D55*
X10971Y19790D02*
D03*
X13181Y0D02*
D03*
X-13179D02*
D03*
X-11014Y19790D02*
D03*
D56*
X-270Y18760D02*
D03*
X5914Y20354D02*
D03*
X-778Y8455D02*
D03*
X-1516Y7638D02*
D03*
X1181Y13150D02*
D03*
X5630Y19252D02*
D03*
X5719Y15502D02*
D03*
X-11811Y177D02*
D03*
X-5876Y2579D02*
D03*
X-14213Y1004D02*
D03*
X-6700Y3900D02*
D03*
Y4700D02*
D03*
X8300Y4000D02*
D03*
Y4800D02*
D03*
M02*
