G04*
G04 #@! TF.GenerationSoftware,Altium Limited,Altium NEXUS,1.1.9 (86)*
G04*
G04 Layer_Color=32768*
%FSLAX24Y24*%
%MOIN*%
G70*
G01*
G75*
%ADD12C,0.0079*%
%ADD97C,0.0039*%
%ADD99C,0.0020*%
D12*
X6427Y11772D02*
X11939D01*
Y14528D01*
X6427D02*
X11939D01*
X6427Y11772D02*
Y14528D01*
D97*
X6303Y4400D02*
X6697D01*
X6500Y4203D02*
Y4597D01*
X-8697Y4300D02*
X-8303D01*
X-8500Y4103D02*
Y4497D01*
X6132Y17825D02*
X6329Y18022D01*
X6132Y16841D02*
Y18022D01*
Y16841D02*
X7313D01*
Y18022D01*
X6132D02*
X7313D01*
X4911Y13692D02*
X5305D01*
X5108Y13496D02*
Y13889D01*
X-8228Y6181D02*
Y6575D01*
X-8425Y6378D02*
X-8031D01*
X6663Y6181D02*
Y6575D01*
X6466Y6378D02*
X6859D01*
X-148Y9761D02*
X246D01*
X49Y9564D02*
Y9958D01*
X7087Y15305D02*
Y15699D01*
X6890Y15502D02*
X7283D01*
X-9823Y15187D02*
Y15581D01*
X-10020Y15384D02*
X-9626D01*
X6530Y18110D02*
X6923D01*
X6726Y17913D02*
Y18307D01*
X1378Y18602D02*
X1772D01*
X1575Y18406D02*
Y18799D01*
X12500Y3553D02*
Y3947D01*
X12303Y3750D02*
X12697D01*
X-12500Y3553D02*
Y3947D01*
X-12697Y3750D02*
X-12303D01*
D99*
X-7500Y8396D02*
Y8612D01*
X-7608Y8504D02*
X-7392D01*
X-7815Y8661D02*
X-7185D01*
X-7815Y8346D02*
X-7185D01*
X-7815D02*
Y8661D01*
X-7185Y8346D02*
Y8661D01*
X7500Y8396D02*
Y8612D01*
X7392Y8504D02*
X7608D01*
X7185Y8346D02*
X7815D01*
X7185Y8661D02*
X7815D01*
Y8346D02*
Y8661D01*
X7185Y8346D02*
Y8661D01*
X7500Y6663D02*
Y6880D01*
X7392Y6772D02*
X7608D01*
X7185Y6614D02*
X7815D01*
X7185Y6929D02*
X7815D01*
Y6614D02*
Y6929D01*
X7185Y6614D02*
Y6929D01*
X-7500Y6663D02*
Y6880D01*
X-7608Y6772D02*
X-7392D01*
X-7815Y6929D02*
X-7185D01*
X-7815Y6614D02*
X-7185D01*
X-7815D02*
Y6929D01*
X-7185Y6614D02*
Y6929D01*
X7520Y16378D02*
X7835D01*
X7520Y15748D02*
X7835D01*
Y16378D01*
X7520Y15748D02*
Y16378D01*
X7677Y15955D02*
Y16171D01*
X7569Y16063D02*
X7785D01*
X7898Y3711D02*
Y5089D01*
X5102Y3711D02*
Y5089D01*
X7898D01*
X5102Y3711D02*
X7898D01*
X-7102Y3611D02*
Y4989D01*
X-9898Y3611D02*
Y4989D01*
X-7102D01*
X-9898Y3611D02*
X-7102D01*
X5059Y6417D02*
X5374D01*
X5059Y7047D02*
X5374D01*
Y6417D02*
Y7047D01*
X5059Y6417D02*
Y7047D01*
X5217Y6623D02*
Y6840D01*
X5108Y6732D02*
X5325D01*
X-6467Y7106D02*
X-6152D01*
X-6467Y7736D02*
X-6152D01*
Y7106D02*
Y7736D01*
X-6467Y7106D02*
Y7736D01*
X-6309Y7313D02*
Y7530D01*
X-6417Y7421D02*
X-6201D01*
X600Y16388D02*
X817D01*
X709Y16280D02*
Y16496D01*
X866Y16073D02*
Y16703D01*
X551Y16073D02*
Y16703D01*
X866D01*
X551Y16073D02*
X866D01*
X1535Y16388D02*
X1752D01*
X1644Y16280D02*
Y16496D01*
X1801Y16073D02*
Y16703D01*
X1486Y16073D02*
Y16703D01*
X1801D01*
X1486Y16073D02*
X1801D01*
X5758Y12935D02*
Y14450D01*
X4459Y12935D02*
Y14450D01*
Y12935D02*
X5758D01*
X4459Y14450D02*
X5758D01*
X5307Y14695D02*
Y14911D01*
X5199Y14803D02*
X5415D01*
X4992Y14961D02*
X5622D01*
X4992Y14646D02*
X5622D01*
Y14961D01*
X4992Y14646D02*
Y14961D01*
X-1352Y9541D02*
X-1116D01*
X-1234Y9423D02*
Y9659D01*
X-998Y9128D02*
Y9955D01*
X-1470Y9128D02*
Y9955D01*
Y9128D02*
X-998D01*
X-1470Y9955D02*
X-998D01*
X148Y8258D02*
Y8494D01*
X30Y8376D02*
X266D01*
X-266Y8140D02*
X561D01*
X-266Y8612D02*
X561D01*
X-266Y8140D02*
Y8612D01*
X561Y8140D02*
Y8612D01*
X955Y8353D02*
Y8668D01*
X1585Y8353D02*
Y8668D01*
X955Y8353D02*
X1585D01*
X955Y8668D02*
X1585D01*
X1152Y8510D02*
X1388D01*
X1270Y8392D02*
Y8628D01*
X5841Y18415D02*
X6057D01*
X5949Y18307D02*
Y18524D01*
X5792Y18100D02*
Y18730D01*
X6107Y18100D02*
Y18730D01*
X5792Y18100D02*
X6107D01*
X5792Y18730D02*
X6107D01*
X7953Y18061D02*
Y18278D01*
X7844Y18169D02*
X8061D01*
X7638Y18012D02*
X8268D01*
X7638Y18327D02*
X8268D01*
Y18012D02*
Y18327D01*
X7638Y18012D02*
Y18327D01*
X-5581Y7421D02*
X-5364D01*
X-5472Y7313D02*
Y7530D01*
X-5630Y7106D02*
Y7736D01*
X-5315Y7106D02*
Y7736D01*
X-5630D02*
X-5315D01*
X-5630Y7106D02*
X-5315D01*
X4291Y6722D02*
X4508D01*
X4400Y6614D02*
Y6830D01*
X4242Y6407D02*
Y7037D01*
X4557Y6407D02*
Y7037D01*
X4242D02*
X4557D01*
X4242Y6407D02*
X4557D01*
X-8878Y7205D02*
X-7579D01*
X-8878Y5551D02*
X-7579D01*
X-8878D02*
Y7205D01*
X-7579Y5551D02*
Y7205D01*
X6013D02*
X7312D01*
X6013Y5551D02*
X7312D01*
X6013D02*
Y7205D01*
X7312Y5551D02*
Y7205D01*
X876Y8934D02*
Y10588D01*
X-778Y8934D02*
Y10588D01*
X876D01*
X-778Y8934D02*
X876D01*
X7072Y18976D02*
Y19291D01*
X6442Y18976D02*
Y19291D01*
Y18976D02*
X7072D01*
X6442Y19291D02*
X7072D01*
X6649Y19134D02*
X6865D01*
X6757Y19026D02*
Y19242D01*
X6875Y18484D02*
Y18799D01*
X7505Y18484D02*
Y18799D01*
X6875D02*
X7505D01*
X6875Y18484D02*
X7505D01*
X7081Y18642D02*
X7298D01*
X7190Y18533D02*
Y18750D01*
X7598Y17569D02*
Y17884D01*
X8228Y17569D02*
Y17884D01*
X7598D02*
X8228D01*
X7598Y17569D02*
X8228D01*
X7805Y17726D02*
X8022D01*
X7913Y17618D02*
Y17835D01*
X7047Y15748D02*
X7362D01*
X7047Y16378D02*
X7362D01*
X7047Y15748D02*
Y16378D01*
X7362Y15748D02*
Y16378D01*
X7205Y15955D02*
Y16171D01*
X7096Y16063D02*
X7313D01*
X8228Y17126D02*
Y17441D01*
X7598Y17126D02*
Y17441D01*
Y17126D02*
X8228D01*
X7598Y17441D02*
X8228D01*
X7805Y17283D02*
X8022D01*
X7913Y17175D02*
Y17392D01*
X4045Y13445D02*
Y14075D01*
X4360Y13445D02*
Y14075D01*
X4045D02*
X4360D01*
X4045Y13445D02*
X4360D01*
X4203Y13652D02*
Y13868D01*
X4094Y13760D02*
X4311D01*
X6122Y15935D02*
X8051D01*
X6122Y15069D02*
X8051D01*
Y15935D01*
X6122Y15069D02*
Y15935D01*
X-10866Y13081D02*
Y13317D01*
X-10984Y13199D02*
X-10748D01*
X-11181Y13041D02*
X-10551D01*
X-11181Y13356D02*
X-10551D01*
X-11181Y13041D02*
Y13356D01*
X-10551Y13041D02*
Y13356D01*
X-9193Y14459D02*
Y16309D01*
X-10453Y14459D02*
Y16309D01*
Y14459D02*
X-9193D01*
X-10453Y16309D02*
X-9193D01*
X5309Y16398D02*
Y19823D01*
X8144Y16398D02*
Y19823D01*
X5309D02*
X8144D01*
X5309Y16398D02*
X8144D01*
X2008Y17638D02*
Y19567D01*
X1142Y17638D02*
Y19567D01*
Y17638D02*
X2008D01*
X1142Y19567D02*
X2008D01*
X10039Y6900D02*
X14961D01*
X10039Y600D02*
X14961D01*
Y6900D01*
X10039Y600D02*
Y6900D01*
X-14961D02*
X-10039D01*
X-14961Y600D02*
X-10039D01*
Y6900D01*
X-14961Y600D02*
Y6900D01*
M02*
