G04*
G04 #@! TF.GenerationSoftware,Altium Limited,Altium NEXUS,1.1.9 (86)*
G04*
G04 Layer_Color=2752767*
%FSLAX24Y24*%
%MOIN*%
G70*
G01*
G75*
%ADD101C,0.0020*%
%ADD102C,0.0027*%
D101*
X-11271Y10971D02*
Y11131D01*
X-11111D01*
Y10971D01*
X-11271D01*
Y9971D02*
Y10131D01*
X-11111D01*
Y9971D01*
X-11271D01*
X-11291Y8737D02*
Y8897D01*
X-11131D01*
Y8737D01*
X-11291D01*
Y7737D02*
Y7897D01*
X-11131D01*
Y7737D01*
X-11291D01*
X11387Y8737D02*
Y8897D01*
X11547D01*
Y8737D01*
X11387D01*
Y7737D02*
Y7897D01*
X11547D01*
Y7737D01*
X11387D01*
X11387Y10971D02*
Y11131D01*
X11547D01*
Y10971D01*
X11387D01*
Y9971D02*
Y10131D01*
X11547D01*
Y9971D01*
X11387D01*
X7333Y13070D02*
X7253Y13230D01*
X7413D01*
X7333Y13070D01*
X9183D02*
X9103Y13230D01*
X9263D01*
X9183Y13070D01*
X11033D02*
X10953Y13230D01*
X11113D01*
X11033Y13070D01*
X9732Y18200D02*
X9772Y18240D01*
X9812D01*
X9772Y18280D01*
X9812Y18320D01*
X9772D01*
X9732Y18360D01*
X9692Y18320D01*
X9652D01*
X9692Y18280D01*
X9652Y18240D01*
X9692D01*
X9732Y18200D01*
X10232Y17200D02*
X10272Y17240D01*
X10312D01*
X10272Y17280D01*
X10312Y17320D01*
X10272D01*
X10232Y17360D01*
X10192Y17320D01*
X10152D01*
X10192Y17280D01*
X10152Y17240D01*
X10192D01*
X10232Y17200D01*
X10732Y18200D02*
X10772Y18240D01*
X10812D01*
X10772Y18280D01*
X10812Y18320D01*
X10772D01*
X10732Y18360D01*
X10692Y18320D01*
X10652D01*
X10692Y18280D01*
X10652Y18240D01*
X10692D01*
X10732Y18200D01*
X9232Y17200D02*
X9272Y17240D01*
X9312D01*
X9272Y17280D01*
X9312Y17320D01*
X9272D01*
X9232Y17360D01*
X9192Y17320D01*
X9152D01*
X9192Y17280D01*
X9152Y17240D01*
X9192D01*
X9232Y17200D01*
X8732Y18200D02*
X8772Y18240D01*
X8812D01*
X8772Y18280D01*
X8812Y18320D01*
X8772D01*
X8732Y18360D01*
X8692Y18320D01*
X8652D01*
X8692Y18280D01*
X8652Y18240D01*
X8692D01*
X8732Y18200D01*
X10732Y15200D02*
X10772Y15240D01*
X10812D01*
X10772Y15280D01*
X10812Y15320D01*
X10772D01*
X10732Y15360D01*
X10692Y15320D01*
X10652D01*
X10692Y15280D01*
X10652Y15240D01*
X10692D01*
X10732Y15200D01*
X10232Y16200D02*
X10272Y16240D01*
X10312D01*
X10272Y16280D01*
X10312Y16320D01*
X10272D01*
X10232Y16360D01*
X10192Y16320D01*
X10152D01*
X10192Y16280D01*
X10152Y16240D01*
X10192D01*
X10232Y16200D01*
X8732Y15200D02*
X8772Y15240D01*
X8812D01*
X8772Y15280D01*
X8812Y15320D01*
X8772D01*
X8732Y15360D01*
X8692Y15320D01*
X8652D01*
X8692Y15280D01*
X8652Y15240D01*
X8692D01*
X8732Y15200D01*
X9232Y16200D02*
X9272Y16240D01*
X9312D01*
X9272Y16280D01*
X9312Y16320D01*
X9272D01*
X9232Y16360D01*
X9192Y16320D01*
X9152D01*
X9192Y16280D01*
X9152Y16240D01*
X9192D01*
X9232Y16200D01*
X9732Y15200D02*
X9772Y15240D01*
X9812D01*
X9772Y15280D01*
X9812Y15320D01*
X9772D01*
X9732Y15360D01*
X9692Y15320D01*
X9652D01*
X9692Y15280D01*
X9652Y15240D01*
X9692D01*
X9732Y15200D01*
X-9880Y12120D02*
X-9840Y12200D01*
X-9880Y12280D01*
X-9800Y12240D01*
X-9720Y12280D01*
X-9760Y12200D01*
X-9720Y12120D01*
X-9800Y12160D01*
X-9880Y12120D01*
Y13120D02*
X-9840Y13200D01*
X-9880Y13280D01*
X-9800Y13240D01*
X-9720Y13280D01*
X-9760Y13200D01*
X-9720Y13120D01*
X-9800Y13160D01*
X-9880Y13120D01*
X-8840Y12160D02*
Y12120D01*
X-8760D01*
Y12160D01*
X-8720D01*
Y12240D01*
X-8760D01*
Y12280D01*
X-8840D01*
Y12240D01*
X-8880D01*
Y12160D01*
X-8840D01*
Y13160D02*
Y13120D01*
X-8760D01*
Y13160D01*
X-8720D01*
Y13240D01*
X-8760D01*
Y13280D01*
X-8840D01*
Y13240D01*
X-8880D01*
Y13160D01*
X-8840D01*
X-7840Y12160D02*
Y12120D01*
X-7760D01*
Y12160D01*
X-7720D01*
Y12240D01*
X-7760D01*
Y12280D01*
X-7840D01*
Y12240D01*
X-7880D01*
Y12160D01*
X-7840D01*
Y13160D02*
Y13120D01*
X-7760D01*
Y13160D01*
X-7720D01*
Y13240D01*
X-7760D01*
Y13280D01*
X-7840D01*
Y13240D01*
X-7880D01*
Y13160D01*
X-7840D01*
X-6840Y12160D02*
Y12120D01*
X-6760D01*
Y12160D01*
X-6720D01*
Y12240D01*
X-6760D01*
Y12280D01*
X-6840D01*
Y12240D01*
X-6880D01*
Y12160D01*
X-6840D01*
Y13160D02*
Y13120D01*
X-6760D01*
Y13160D01*
X-6720D01*
Y13240D01*
X-6760D01*
Y13280D01*
X-6840D01*
Y13240D01*
X-6880D01*
Y13160D01*
X-6840D01*
X-6040Y1460D02*
Y1420D01*
X-5960D01*
Y1460D01*
X-5920D01*
Y1540D01*
X-5960D01*
Y1580D01*
X-6040D01*
Y1540D01*
X-6080D01*
Y1460D01*
X-6040D01*
X-7040D02*
Y1420D01*
X-6960D01*
Y1460D01*
X-6920D01*
Y1540D01*
X-6960D01*
Y1580D01*
X-7040D01*
Y1540D01*
X-7080D01*
Y1460D01*
X-7040D01*
X-8040D02*
Y1420D01*
X-7960D01*
Y1460D01*
X-7920D01*
Y1540D01*
X-7960D01*
Y1580D01*
X-8040D01*
Y1540D01*
X-8080D01*
Y1460D01*
X-8040D01*
X-9080Y1420D02*
X-9040Y1500D01*
X-9080Y1580D01*
X-9000Y1540D01*
X-8920Y1580D01*
X-8960Y1500D01*
X-8920Y1420D01*
X-9000Y1460D01*
X-9080Y1420D01*
X-9040Y10710D02*
Y10670D01*
X-8960D01*
Y10710D01*
X-8920D01*
Y10790D01*
X-8960D01*
Y10830D01*
X-9040D01*
Y10790D01*
X-9080D01*
Y10710D01*
X-9040D01*
X-8040D02*
Y10670D01*
X-7960D01*
Y10710D01*
X-7920D01*
Y10790D01*
X-7960D01*
Y10830D01*
X-8040D01*
Y10790D01*
X-8080D01*
Y10710D01*
X-8040D01*
X-7040D02*
Y10670D01*
X-6960D01*
Y10710D01*
X-6920D01*
Y10790D01*
X-6960D01*
Y10830D01*
X-7040D01*
Y10790D01*
X-7080D01*
Y10710D01*
X-7040D01*
X-6040D02*
Y10670D01*
X-5960D01*
Y10710D01*
X-5920D01*
Y10790D01*
X-5960D01*
Y10830D01*
X-6040D01*
Y10790D01*
X-6080D01*
Y10710D01*
X-6040D01*
X8960Y1460D02*
Y1420D01*
X9040D01*
Y1460D01*
X9080D01*
Y1540D01*
X9040D01*
Y1580D01*
X8960D01*
Y1540D01*
X8920D01*
Y1460D01*
X8960D01*
X7960D02*
Y1420D01*
X8040D01*
Y1460D01*
X8080D01*
Y1540D01*
X8040D01*
Y1580D01*
X7960D01*
Y1540D01*
X7920D01*
Y1460D01*
X7960D01*
X6960D02*
Y1420D01*
X7040D01*
Y1460D01*
X7080D01*
Y1540D01*
X7040D01*
Y1580D01*
X6960D01*
Y1540D01*
X6920D01*
Y1460D01*
X6960D01*
X5920Y1420D02*
X5960Y1500D01*
X5920Y1580D01*
X6000Y1540D01*
X6080Y1580D01*
X6040Y1500D01*
X6080Y1420D01*
X6000Y1460D01*
X5920Y1420D01*
X5960Y10710D02*
Y10670D01*
X6040D01*
Y10710D01*
X6080D01*
Y10790D01*
X6040D01*
Y10830D01*
X5960D01*
Y10790D01*
X5920D01*
Y10710D01*
X5960D01*
X6960D02*
Y10670D01*
X7040D01*
Y10710D01*
X7080D01*
Y10790D01*
X7040D01*
Y10830D01*
X6960D01*
Y10790D01*
X6920D01*
Y10710D01*
X6960D01*
X7960D02*
Y10670D01*
X8040D01*
Y10710D01*
X8080D01*
Y10790D01*
X8040D01*
Y10830D01*
X7960D01*
Y10790D01*
X7920D01*
Y10710D01*
X7960D01*
X8960D02*
Y10670D01*
X9040D01*
Y10710D01*
X9080D01*
Y10790D01*
X9040D01*
Y10830D01*
X8960D01*
Y10790D01*
X8920D01*
Y10710D01*
X8960D01*
X-3080Y19420D02*
Y19580D01*
X-2920D01*
Y19420D01*
X-3080D01*
Y17420D02*
Y17580D01*
X-2920D01*
Y17420D01*
X-3080D01*
Y16420D02*
Y16580D01*
X-2920D01*
Y16420D01*
X-3080D01*
Y15420D02*
Y15580D01*
X-2920D01*
Y15420D01*
X-3080D01*
Y14420D02*
Y14580D01*
X-2920D01*
Y14420D01*
X-3080D01*
Y12420D02*
Y12580D01*
X-2920D01*
Y12420D01*
X-3080D01*
Y10420D02*
Y10580D01*
X-2920D01*
Y10420D01*
X-3080D01*
Y8420D02*
Y8580D01*
X-2920D01*
Y8420D01*
X-3080D01*
Y6420D02*
Y6580D01*
X-2920D01*
Y6420D01*
X-3080D01*
Y4420D02*
Y4580D01*
X-2920D01*
Y4420D01*
X-3080D01*
Y2420D02*
Y2580D01*
X-2920D01*
Y2420D01*
X-3080D01*
Y5420D02*
Y5580D01*
X-2920D01*
Y5420D01*
X-3080D01*
Y3420D02*
Y3580D01*
X-2920D01*
Y3420D01*
X-3080D01*
Y1420D02*
X-3040Y1500D01*
X-3080Y1580D01*
X-3000Y1540D01*
X-2920Y1580D01*
X-2960Y1500D01*
X-2920Y1420D01*
X-3000Y1460D01*
X-3080Y1420D01*
Y420D02*
Y580D01*
X-2920D01*
Y420D01*
X-3080D01*
Y7420D02*
Y7580D01*
X-2920D01*
Y7420D01*
X-3080D01*
Y9420D02*
Y9580D01*
X-2920D01*
Y9420D01*
X-3080D01*
Y11420D02*
Y11580D01*
X-2920D01*
Y11420D01*
X-3080D01*
Y13420D02*
Y13580D01*
X-2920D01*
Y13420D01*
X-3080D01*
Y18420D02*
Y18580D01*
X-2920D01*
Y18420D01*
X-3080D01*
X2920Y1420D02*
Y1580D01*
X3080D01*
Y1420D01*
X2920D01*
Y6420D02*
X2960Y6500D01*
X2920Y6580D01*
X3000Y6540D01*
X3080Y6580D01*
X3040Y6500D01*
X3080Y6420D01*
X3000Y6460D01*
X2920Y6420D01*
Y8420D02*
X2960Y8500D01*
X2920Y8580D01*
X3000Y8540D01*
X3080Y8580D01*
X3040Y8500D01*
X3080Y8420D01*
X3000Y8460D01*
X2920Y8420D01*
Y10420D02*
Y10580D01*
X3080D01*
Y10420D01*
X2920D01*
Y12420D02*
Y12580D01*
X3080D01*
Y12420D01*
X2920D01*
Y19420D02*
X2960Y19500D01*
X2920Y19580D01*
X3000Y19540D01*
X3080Y19580D01*
X3040Y19500D01*
X3080Y19420D01*
X3000Y19460D01*
X2920Y19420D01*
Y18420D02*
X2960Y18500D01*
X2920Y18580D01*
X3000Y18540D01*
X3080Y18580D01*
X3040Y18500D01*
X3080Y18420D01*
X3000Y18460D01*
X2920Y18420D01*
Y16420D02*
Y16580D01*
X3080D01*
Y16420D01*
X2920D01*
Y14420D02*
Y14580D01*
X3080D01*
Y14420D01*
X2920D01*
Y17420D02*
Y17580D01*
X3080D01*
Y17420D01*
X2920D01*
Y15420D02*
Y15580D01*
X3080D01*
Y15420D01*
X2920D01*
Y13420D02*
Y13580D01*
X3080D01*
Y13420D01*
X2920D01*
Y11420D02*
Y11580D01*
X3080D01*
Y11420D01*
X2920D01*
Y9420D02*
X2960Y9500D01*
X2920Y9580D01*
X3000Y9540D01*
X3080Y9580D01*
X3040Y9500D01*
X3080Y9420D01*
X3000Y9460D01*
X2920Y9420D01*
Y7420D02*
X2960Y7500D01*
X2920Y7580D01*
X3000Y7540D01*
X3080Y7580D01*
X3040Y7500D01*
X3080Y7420D01*
X3000Y7460D01*
X2920Y7420D01*
Y5420D02*
Y5580D01*
X3080D01*
Y5420D01*
X2920D01*
Y4420D02*
Y4580D01*
X3080D01*
Y4420D01*
X2920D01*
Y3420D02*
Y3580D01*
X3080D01*
Y3420D01*
X2920D01*
Y2420D02*
Y2580D01*
X3080D01*
Y2420D01*
X2920D01*
Y420D02*
Y580D01*
X3080D01*
Y420D01*
X2920D01*
X10891Y19710D02*
X10931D01*
X10971Y19750D01*
X11011Y19710D01*
X11051D01*
Y19750D01*
X11011Y19790D01*
X11051Y19830D01*
Y19870D01*
X11011D01*
X10971Y19830D01*
X10931Y19870D01*
X10891D01*
Y19830D01*
X10931Y19790D01*
X10891Y19750D01*
Y19710D01*
X13101Y-80D02*
X13141D01*
X13181Y-40D01*
X13221Y-80D01*
X13261D01*
Y-40D01*
X13221Y0D01*
X13261Y40D01*
Y80D01*
X13221D01*
X13181Y40D01*
X13141Y80D01*
X13101D01*
Y40D01*
X13141Y0D01*
X13101Y-40D01*
Y-80D01*
X-13259D02*
X-13219D01*
X-13179Y-40D01*
X-13139Y-80D01*
X-13099D01*
Y-40D01*
X-13139Y0D01*
X-13099Y40D01*
Y80D01*
X-13139D01*
X-13179Y40D01*
X-13219Y80D01*
X-13259D01*
Y40D01*
X-13219Y0D01*
X-13259Y-40D01*
Y-80D01*
X-11094Y19710D02*
X-11054D01*
X-11014Y19750D01*
X-10974Y19710D01*
X-10934D01*
Y19750D01*
X-10974Y19790D01*
X-10934Y19830D01*
Y19870D01*
X-10974D01*
X-11014Y19830D01*
X-11054Y19870D01*
X-11094D01*
Y19830D01*
X-11054Y19790D01*
X-11094Y19750D01*
Y19710D01*
X8159Y16298D02*
X8199Y16338D01*
X8239D01*
X8199Y16378D01*
X8239Y16418D01*
X8199D01*
X8159Y16458D01*
X8119Y16418D01*
X8079D01*
X8119Y16378D01*
X8079Y16338D01*
X8119D01*
X8159Y16298D01*
X9732Y17715D02*
X9772Y17755D01*
X9812D01*
X9772Y17795D01*
X9812Y17835D01*
X9772D01*
X9732Y17875D01*
X9692Y17835D01*
X9652D01*
X9692Y17795D01*
X9652Y17755D01*
X9692D01*
X9732Y17715D01*
X10984Y16190D02*
X11024Y16230D01*
X11064D01*
X11024Y16270D01*
X11064Y16310D01*
X11024D01*
X10984Y16350D01*
X10944Y16310D01*
X10904D01*
X10944Y16270D01*
X10904Y16230D01*
X10944D01*
X10984Y16190D01*
X8691Y17579D02*
X8731Y17619D01*
X8771D01*
X8731Y17659D01*
X8771Y17699D01*
X8731D01*
X8691Y17739D01*
X8651Y17699D01*
X8611D01*
X8651Y17659D01*
X8611Y17619D01*
X8651D01*
X8691Y17579D01*
X7982Y18540D02*
X8022Y18580D01*
X8062D01*
X8022Y18620D01*
X8062Y18660D01*
X8022D01*
X7982Y18700D01*
X7942Y18660D01*
X7902D01*
X7942Y18620D01*
X7902Y18580D01*
X7942D01*
X7982Y18540D01*
X-310Y18720D02*
Y18680D01*
X-230D01*
Y18720D01*
X-190D01*
Y18800D01*
X-230D01*
Y18840D01*
X-310D01*
Y18800D01*
X-350D01*
Y18720D01*
X-310D01*
X5874Y20314D02*
Y20274D01*
X5954D01*
Y20314D01*
X5994D01*
Y20394D01*
X5954D01*
Y20434D01*
X5874D01*
Y20394D01*
X5834D01*
Y20314D01*
X5874D01*
X-818Y8415D02*
Y8375D01*
X-738D01*
Y8415D01*
X-698D01*
Y8495D01*
X-738D01*
Y8535D01*
X-818D01*
Y8495D01*
X-858D01*
Y8415D01*
X-818D01*
X-1556Y7598D02*
Y7558D01*
X-1476D01*
Y7598D01*
X-1436D01*
Y7678D01*
X-1476D01*
Y7718D01*
X-1556D01*
Y7678D01*
X-1596D01*
Y7598D01*
X-1556D01*
X1141Y13110D02*
Y13070D01*
X1221D01*
Y13110D01*
X1261D01*
Y13190D01*
X1221D01*
Y13230D01*
X1141D01*
Y13190D01*
X1101D01*
Y13110D01*
X1141D01*
X5590Y19212D02*
Y19172D01*
X5670D01*
Y19212D01*
X5710D01*
Y19292D01*
X5670D01*
Y19332D01*
X5590D01*
Y19292D01*
X5550D01*
Y19212D01*
X5590D01*
X5678Y15462D02*
Y15422D01*
X5759D01*
Y15462D01*
X5799D01*
Y15542D01*
X5759D01*
Y15582D01*
X5678D01*
Y15542D01*
X5638D01*
Y15462D01*
X5678D01*
X-11851Y137D02*
Y97D01*
X-11771D01*
Y137D01*
X-11731D01*
Y217D01*
X-11771D01*
Y257D01*
X-11851D01*
Y217D01*
X-11891D01*
Y137D01*
X-11851D01*
X-5916Y2539D02*
Y2499D01*
X-5836D01*
Y2539D01*
X-5796D01*
Y2619D01*
X-5836D01*
Y2659D01*
X-5916D01*
Y2619D01*
X-5956D01*
Y2539D01*
X-5916D01*
X-14253Y964D02*
Y924D01*
X-14173D01*
Y964D01*
X-14133D01*
Y1044D01*
X-14173D01*
Y1084D01*
X-14253D01*
Y1044D01*
X-14293D01*
Y964D01*
X-14253D01*
X-12580Y2920D02*
X-12540Y3000D01*
X-12580Y3080D01*
X-12500Y3040D01*
X-12420Y3080D01*
X-12460Y3000D01*
X-12420Y2920D01*
X-12500Y2960D01*
X-12580Y2920D01*
Y4120D02*
X-12540Y4200D01*
X-12580Y4280D01*
X-12500Y4240D01*
X-12420Y4280D01*
X-12460Y4200D01*
X-12420Y4120D01*
X-12500Y4160D01*
X-12580Y4120D01*
X-6740Y3860D02*
Y3820D01*
X-6660D01*
Y3860D01*
X-6620D01*
Y3940D01*
X-6660D01*
Y3980D01*
X-6740D01*
Y3940D01*
X-6780D01*
Y3860D01*
X-6740D01*
Y4660D02*
Y4620D01*
X-6660D01*
Y4660D01*
X-6620D01*
Y4740D01*
X-6660D01*
Y4780D01*
X-6740D01*
Y4740D01*
X-6780D01*
Y4660D01*
X-6740D01*
X12420Y4220D02*
X12460Y4300D01*
X12420Y4380D01*
X12500Y4340D01*
X12580Y4380D01*
X12540Y4300D01*
X12580Y4220D01*
X12500Y4260D01*
X12420Y4220D01*
Y3120D02*
X12460Y3200D01*
X12420Y3280D01*
X12500Y3240D01*
X12580Y3280D01*
X12540Y3200D01*
X12580Y3120D01*
X12500Y3160D01*
X12420Y3120D01*
X8260Y3960D02*
Y3920D01*
X8340D01*
Y3960D01*
X8380D01*
Y4040D01*
X8340D01*
Y4080D01*
X8260D01*
Y4040D01*
X8220D01*
Y3960D01*
X8260D01*
Y4760D02*
Y4720D01*
X8340D01*
Y4760D01*
X8380D01*
Y4840D01*
X8340D01*
Y4880D01*
X8260D01*
Y4840D01*
X8220D01*
Y4760D01*
X8260D01*
D102*
X4548Y19449D02*
G03*
X4548Y19449I-80J0D01*
G01*
Y16782D02*
G03*
X4548Y16782I-80J0D01*
G01*
M02*
