G04*
G04 #@! TF.GenerationSoftware,Altium Limited,Altium NEXUS,1.1.9 (86)*
G04*
G04 Layer_Color=16711935*
%FSLAX24Y24*%
%MOIN*%
G70*
G01*
G75*
%ADD99C,0.0020*%
%ADD100R,0.0197X0.0197*%
D99*
X5102Y3711D02*
X7898D01*
X5102Y5089D02*
X7898D01*
X5102Y3711D02*
Y5089D01*
X7898Y3711D02*
Y5089D01*
X-9898Y3611D02*
X-7102D01*
X-9898Y4989D02*
X-7102D01*
X-9898Y3611D02*
Y4989D01*
X-7102Y3611D02*
Y4989D01*
X5719Y13082D02*
Y14303D01*
X4498Y13082D02*
Y14303D01*
Y13082D02*
X5719D01*
X4498Y14303D02*
X5719D01*
X955Y8668D02*
X1585D01*
X955Y8353D02*
X1585D01*
Y8668D01*
X955Y8353D02*
Y8668D01*
X4045Y13445D02*
X4360D01*
X4045Y14075D02*
X4360D01*
Y13445D02*
Y14075D01*
X4045Y13445D02*
Y14075D01*
X6122Y15069D02*
Y15935D01*
X8051Y15069D02*
Y15935D01*
X6122Y15069D02*
X8051D01*
X6122Y15935D02*
X8051D01*
X-10551Y13041D02*
Y13356D01*
X-11181Y13041D02*
Y13356D01*
X-10551D01*
X-11181Y13041D02*
X-10551D01*
X-10453Y14459D02*
Y16309D01*
X-9193D01*
X-10453Y14459D02*
X-9193D01*
Y16309D01*
X1142Y19567D02*
X2008D01*
X1142Y17638D02*
X2008D01*
X1142D02*
Y19567D01*
X2008Y17638D02*
Y19567D01*
X-10935Y-747D02*
X-3985D01*
Y943D01*
X-10935D02*
X-3985D01*
X-10935Y-747D02*
Y943D01*
X3995Y-747D02*
X10945D01*
Y943D01*
X3995D02*
X10945D01*
X3995Y-747D02*
Y943D01*
D100*
X4596Y14204D02*
D03*
M02*
