G04*
G04 #@! TF.GenerationSoftware,Altium Limited,Altium NEXUS,1.1.9 (86)*
G04*
G04 Layer_Color=16711935*
%FSLAX24Y24*%
%MOIN*%
G70*
G01*
G75*
%ADD20R,0.0257X0.0297*%
%ADD21R,0.0297X0.0257*%
%ADD27R,0.0671X0.0671*%
%ADD28C,0.0671*%
%ADD29C,0.1556*%
%ADD30C,0.1013*%
%ADD31C,0.0380*%
%ADD32C,0.0946*%
%ADD33C,0.0789*%
%ADD34R,0.0789X0.0789*%
%ADD35O,0.0867X0.0789*%
%ADD36O,0.0946X0.0789*%
%ADD37O,0.0946X0.0907*%
G04:AMPARAMS|DCode=38|XSize=86.7mil|YSize=78.9mil|CornerRadius=0mil|HoleSize=0mil|Usage=FLASHONLY|Rotation=180.000|XOffset=0mil|YOffset=0mil|HoleType=Round|Shape=Octagon|*
%AMOCTAGOND38*
4,1,8,-0.0434,0.0197,-0.0434,-0.0197,-0.0237,-0.0394,0.0237,-0.0394,0.0434,-0.0197,0.0434,0.0197,0.0237,0.0394,-0.0237,0.0394,-0.0434,0.0197,0.0*
%
%ADD38OCTAGOND38*%

%ADD39C,0.1655*%
%ADD40C,0.0592*%
%ADD79R,0.0741X0.1241*%
%ADD80R,0.0493X0.1360*%
%ADD81R,0.1005X0.0702*%
%ADD82R,0.0218X0.0356*%
%ADD83R,0.0324X0.0324*%
%ADD84R,0.0324X0.0324*%
%ADD85R,0.0285X0.0285*%
%ADD86R,0.0316X0.0474*%
%ADD87O,0.0316X0.0159*%
%ADD88O,0.0159X0.0316*%
%ADD89R,0.0749X0.0686*%
%ADD90R,0.0611X0.0828*%
%ADD91R,0.1143X0.0533*%
%ADD92R,0.1379X0.1025*%
%ADD93R,0.0474X0.1025*%
%ADD94R,0.0828X0.0611*%
%ADD95R,0.0907X0.1261*%
%ADD96R,0.0395X0.0710*%
D20*
X5484Y14803D02*
D03*
X5130D02*
D03*
D21*
X5217Y6555D02*
D03*
Y6909D02*
D03*
X-6309Y7244D02*
D03*
Y7598D02*
D03*
X-5472D02*
D03*
Y7244D02*
D03*
X4400Y6899D02*
D03*
Y6545D02*
D03*
X4203Y13583D02*
D03*
Y13937D02*
D03*
D27*
X-11191Y11051D02*
D03*
X-11211Y8817D02*
D03*
X11467D02*
D03*
X11467Y11051D02*
D03*
D28*
X-11191Y10051D02*
D03*
X-11211Y7817D02*
D03*
X11467D02*
D03*
X11467Y10051D02*
D03*
D29*
X4469Y19449D02*
D03*
Y16782D02*
D03*
D30*
X7333Y13150D02*
D03*
X9183D02*
D03*
X11033D02*
D03*
D31*
X9732Y18280D02*
D03*
X10232Y17280D02*
D03*
X10732Y18280D02*
D03*
X9232Y17280D02*
D03*
X8732Y18280D02*
D03*
X10732Y15280D02*
D03*
X10232Y16280D02*
D03*
X8732Y15280D02*
D03*
X9232Y16280D02*
D03*
X9732Y15280D02*
D03*
X8159Y16378D02*
D03*
X9732Y17795D02*
D03*
X10984Y16270D02*
D03*
X8691Y17659D02*
D03*
X7982Y18620D02*
D03*
D32*
X-9800Y12200D02*
D03*
Y13200D02*
D03*
X-9000Y1500D02*
D03*
X6000D02*
D03*
X-3000D02*
D03*
X3000Y6500D02*
D03*
Y19500D02*
D03*
Y18500D02*
D03*
X-12500Y3000D02*
D03*
Y4200D02*
D03*
X12500Y4300D02*
D03*
Y3200D02*
D03*
D33*
X-8800Y12200D02*
D03*
Y13200D02*
D03*
X-7800Y12200D02*
D03*
Y13200D02*
D03*
X-6800Y12200D02*
D03*
Y13200D02*
D03*
X-6000Y1500D02*
D03*
X-7000D02*
D03*
X-8000D02*
D03*
X-9000Y10750D02*
D03*
X-8000D02*
D03*
X-7000D02*
D03*
X9000Y1500D02*
D03*
X8000D02*
D03*
X7000D02*
D03*
X6000Y10750D02*
D03*
X7000D02*
D03*
X8000D02*
D03*
D34*
X-6000D02*
D03*
X9000D02*
D03*
D35*
X-3000Y19500D02*
D03*
Y17500D02*
D03*
Y16500D02*
D03*
Y15500D02*
D03*
Y14500D02*
D03*
Y12500D02*
D03*
Y10500D02*
D03*
Y8500D02*
D03*
Y6500D02*
D03*
Y4500D02*
D03*
Y2500D02*
D03*
Y5500D02*
D03*
Y3500D02*
D03*
Y500D02*
D03*
Y7500D02*
D03*
Y9500D02*
D03*
Y11500D02*
D03*
Y13500D02*
D03*
Y18500D02*
D03*
X3000Y1500D02*
D03*
Y10500D02*
D03*
Y12500D02*
D03*
Y16500D02*
D03*
Y14500D02*
D03*
Y17500D02*
D03*
Y15500D02*
D03*
Y13500D02*
D03*
Y11500D02*
D03*
Y9500D02*
D03*
Y5500D02*
D03*
Y4500D02*
D03*
Y3500D02*
D03*
Y2500D02*
D03*
D36*
Y8500D02*
D03*
D37*
Y7500D02*
D03*
D38*
Y500D02*
D03*
D39*
X10971Y19790D02*
D03*
X13181Y0D02*
D03*
X-13179D02*
D03*
X-11014Y19790D02*
D03*
D40*
X-270Y18760D02*
D03*
X5914Y20354D02*
D03*
X-778Y8455D02*
D03*
X-1516Y7638D02*
D03*
X1181Y13150D02*
D03*
X5630Y19252D02*
D03*
X5719Y15502D02*
D03*
X-11811Y177D02*
D03*
X-5876Y2579D02*
D03*
X-14213Y1004D02*
D03*
X-6700Y3900D02*
D03*
Y4700D02*
D03*
X8300Y4000D02*
D03*
Y4800D02*
D03*
D79*
X5559Y2800D02*
D03*
X7441D02*
D03*
X-9441D02*
D03*
X-7559D02*
D03*
D80*
X7642Y4400D02*
D03*
X5358D02*
D03*
X-7358Y4300D02*
D03*
X-9642D02*
D03*
D81*
X5108Y13692D02*
D03*
D82*
X4724Y13112D02*
D03*
X4980D02*
D03*
X5236D02*
D03*
X5492D02*
D03*
Y14273D02*
D03*
X5236D02*
D03*
X4980D02*
D03*
X4724D02*
D03*
D83*
X-1234Y9364D02*
D03*
Y9718D02*
D03*
D84*
X-30Y8376D02*
D03*
X325D02*
D03*
D85*
X1112Y8510D02*
D03*
X1427D02*
D03*
X-11024Y13199D02*
D03*
X-10709D02*
D03*
D86*
X-8602Y6919D02*
D03*
X-8228D02*
D03*
X-7854D02*
D03*
Y5837D02*
D03*
X-8602D02*
D03*
X6289Y6919D02*
D03*
X6663D02*
D03*
X7037D02*
D03*
Y5837D02*
D03*
X6289D02*
D03*
D87*
X620Y10155D02*
D03*
Y9997D02*
D03*
Y9840D02*
D03*
Y9682D02*
D03*
Y9525D02*
D03*
Y9367D02*
D03*
X-522D02*
D03*
Y9525D02*
D03*
Y9682D02*
D03*
Y9840D02*
D03*
Y9997D02*
D03*
Y10155D02*
D03*
D88*
X443Y9190D02*
D03*
X285D02*
D03*
X128D02*
D03*
X-30D02*
D03*
X-187D02*
D03*
X-344D02*
D03*
Y10332D02*
D03*
X-187D02*
D03*
X-30D02*
D03*
X128D02*
D03*
X285D02*
D03*
X443D02*
D03*
D89*
X49Y9761D02*
D03*
D90*
X7717Y15502D02*
D03*
X6457D02*
D03*
D91*
X-9823Y15974D02*
D03*
Y14793D02*
D03*
D92*
X6726Y19252D02*
D03*
D93*
X5821Y16968D02*
D03*
X6726D02*
D03*
X7632D02*
D03*
D94*
X1575Y17972D02*
D03*
Y19232D02*
D03*
D95*
X-4246Y492D02*
D03*
X-10683D02*
D03*
X10683D02*
D03*
X4246D02*
D03*
D96*
X-5250Y-650D02*
D03*
X-5742D02*
D03*
X-6234D02*
D03*
X-6726D02*
D03*
X-7218D02*
D03*
X-7711D02*
D03*
X-8203D02*
D03*
X-8695D02*
D03*
X-9187D02*
D03*
X-9679D02*
D03*
X9679D02*
D03*
X9187D02*
D03*
X8695D02*
D03*
X8203D02*
D03*
X7711D02*
D03*
X7218D02*
D03*
X6726D02*
D03*
X6234D02*
D03*
X5742D02*
D03*
X5250D02*
D03*
M02*
