G04*
G04 #@! TF.GenerationSoftware,Altium Limited,Altium NEXUS,1.0.11 (97)*
G04*
G04 Layer_Color=128*
%FSLAX25Y25*%
%MOIN*%
G70*
G01*
G75*
%ADD10R,0.01772X0.02165*%
%ADD29R,0.02165X0.01772*%
%ADD30R,0.05315X0.07480*%
%ADD31R,0.05512X0.07087*%
%ADD32R,0.03150X0.10236*%
%ADD33R,0.01378X0.02756*%
%ADD34R,0.09252X0.06221*%
%ADD35R,0.02047X0.02047*%
%ADD36R,0.10630X0.04528*%
%ADD37R,0.12992X0.09449*%
%ADD38R,0.03937X0.09449*%
%ADD39R,0.07480X0.05315*%
%ADD40R,0.04528X0.10630*%
%ADD41R,0.06614X0.11614*%
%ADD42R,0.04134X0.12795*%
%ADD43R,0.02047X0.02047*%
%ADD44O,0.07874X0.01181*%
%ADD45R,0.08268X0.11811*%
%ADD46R,0.03150X0.06299*%
D10*
X18228Y40000D02*
D03*
X21772D02*
D03*
X21772Y35000D02*
D03*
X18228D02*
D03*
D29*
X18000Y168772D02*
D03*
Y165228D02*
D03*
X22000Y165213D02*
D03*
Y168756D02*
D03*
X73000Y140228D02*
D03*
Y143772D02*
D03*
X55000Y135228D02*
D03*
Y138772D02*
D03*
X63000Y53228D02*
D03*
Y56772D02*
D03*
X67000Y53228D02*
D03*
Y56772D02*
D03*
X-87000D02*
D03*
Y53228D02*
D03*
X-83000Y56772D02*
D03*
Y53228D02*
D03*
D30*
X94299Y158000D02*
D03*
X81701D02*
D03*
D31*
X93161Y146000D02*
D03*
X78988D02*
D03*
D32*
X86075D02*
D03*
D33*
X60161Y142807D02*
D03*
X62721D02*
D03*
X65280D02*
D03*
X67839D02*
D03*
Y131193D02*
D03*
X65280D02*
D03*
X62721D02*
D03*
X60161D02*
D03*
D34*
X64000Y137000D02*
D03*
D35*
X-103000Y125425D02*
D03*
Y128575D02*
D03*
D36*
X-100000Y151906D02*
D03*
Y140094D02*
D03*
D37*
X93000Y192417D02*
D03*
D38*
X83945Y169583D02*
D03*
X93000D02*
D03*
X102055D02*
D03*
D39*
X20000Y178701D02*
D03*
Y191299D02*
D03*
D40*
X80094Y134000D02*
D03*
X91905D02*
D03*
D41*
X74410Y26000D02*
D03*
X55590D02*
D03*
X-75590Y28000D02*
D03*
X-94410D02*
D03*
D42*
X53583Y44000D02*
D03*
X76417D02*
D03*
X-96417Y43000D02*
D03*
X-73583D02*
D03*
D43*
X66575Y61000D02*
D03*
X63425D02*
D03*
Y79000D02*
D03*
X66575D02*
D03*
X-86575Y61000D02*
D03*
X-83425D02*
D03*
X-86575Y79000D02*
D03*
X-83425D02*
D03*
D44*
X56760Y66374D02*
D03*
Y68343D02*
D03*
Y70311D02*
D03*
Y72280D02*
D03*
Y74248D02*
D03*
X73295Y66374D02*
D03*
Y68343D02*
D03*
Y70311D02*
D03*
Y72280D02*
D03*
Y74248D02*
D03*
X-93240Y66374D02*
D03*
Y68343D02*
D03*
Y70311D02*
D03*
Y72280D02*
D03*
Y74248D02*
D03*
X-76705Y66374D02*
D03*
Y68343D02*
D03*
Y70311D02*
D03*
Y72280D02*
D03*
Y74248D02*
D03*
D45*
X-42461Y4918D02*
D03*
X-106831D02*
D03*
X106831D02*
D03*
X42461D02*
D03*
D46*
X-52500Y-6500D02*
D03*
X-57422D02*
D03*
X-62343D02*
D03*
X-67264D02*
D03*
X-72185D02*
D03*
X-77107D02*
D03*
X-82028D02*
D03*
X-86949D02*
D03*
X-91870D02*
D03*
X-96792D02*
D03*
X96792D02*
D03*
X91870D02*
D03*
X86949D02*
D03*
X82028D02*
D03*
X77107D02*
D03*
X72185D02*
D03*
X67264D02*
D03*
X62343D02*
D03*
X57422D02*
D03*
X52500D02*
D03*
M02*
