G04*
G04 #@! TF.GenerationSoftware,Altium Limited,Altium NEXUS,1.1.9 (86)*
G04*
G04 Layer_Color=255*
%FSLAX24Y24*%
%MOIN*%
G70*
G01*
G75*
%ADD13R,0.0177X0.0217*%
%ADD14R,0.0217X0.0177*%
%ADD43R,0.0591X0.0591*%
%ADD44C,0.0591*%
%ADD45C,0.1476*%
%ADD46C,0.0933*%
%ADD47C,0.0300*%
%ADD48C,0.0866*%
%ADD49C,0.0709*%
%ADD50R,0.0709X0.0709*%
%ADD51O,0.0787X0.0709*%
%ADD52O,0.0866X0.0709*%
%ADD53O,0.0866X0.0827*%
G04:AMPARAMS|DCode=54|XSize=78.7mil|YSize=70.9mil|CornerRadius=0mil|HoleSize=0mil|Usage=FLASHONLY|Rotation=180.000|XOffset=0mil|YOffset=0mil|HoleType=Round|Shape=Octagon|*
%AMOCTAGOND54*
4,1,8,-0.0394,0.0177,-0.0394,-0.0177,-0.0217,-0.0354,0.0217,-0.0354,0.0394,-0.0177,0.0394,0.0177,0.0217,0.0354,-0.0217,0.0354,-0.0394,0.0177,0.0*
%
%ADD54OCTAGOND54*%

%ADD55C,0.1575*%
%ADD57R,0.0661X0.1161*%
%ADD58R,0.0413X0.1280*%
%ADD59R,0.0925X0.0622*%
%ADD60R,0.0138X0.0276*%
%ADD61R,0.0244X0.0244*%
%ADD62R,0.0244X0.0244*%
%ADD63R,0.0205X0.0205*%
%ADD64R,0.0236X0.0394*%
%ADD65O,0.0236X0.0079*%
%ADD66O,0.0079X0.0236*%
%ADD67R,0.0669X0.0606*%
%ADD68R,0.0531X0.0748*%
%ADD69R,0.1063X0.0453*%
%ADD70R,0.1299X0.0945*%
%ADD71R,0.0394X0.0945*%
%ADD72R,0.0748X0.0531*%
%ADD73R,0.0827X0.1181*%
%ADD74R,0.0315X0.0630*%
D13*
X5484Y14803D02*
D03*
X5130D02*
D03*
D14*
X5217Y6555D02*
D03*
Y6909D02*
D03*
X-6309Y7244D02*
D03*
Y7598D02*
D03*
X-5472D02*
D03*
Y7244D02*
D03*
X4400Y6899D02*
D03*
Y6545D02*
D03*
X4203Y13583D02*
D03*
Y13937D02*
D03*
D43*
X-11191Y11051D02*
D03*
X-11211Y8817D02*
D03*
X11467D02*
D03*
X11467Y11051D02*
D03*
D44*
X-11191Y10051D02*
D03*
X-11211Y7817D02*
D03*
X11467D02*
D03*
X11467Y10051D02*
D03*
D45*
X4469Y19449D02*
D03*
Y16782D02*
D03*
D46*
X7333Y13150D02*
D03*
X9183D02*
D03*
X11033D02*
D03*
D47*
X9732Y18280D02*
D03*
X10232Y17280D02*
D03*
X10732Y18280D02*
D03*
X9232Y17280D02*
D03*
X8732Y18280D02*
D03*
X10732Y15280D02*
D03*
X10232Y16280D02*
D03*
X8732Y15280D02*
D03*
X9232Y16280D02*
D03*
X9732Y15280D02*
D03*
D48*
X-9800Y12200D02*
D03*
Y13200D02*
D03*
X-9000Y1500D02*
D03*
X6000D02*
D03*
X-3000D02*
D03*
X3000Y6500D02*
D03*
Y19500D02*
D03*
Y18500D02*
D03*
D49*
X-8800Y12200D02*
D03*
Y13200D02*
D03*
X-7800Y12200D02*
D03*
Y13200D02*
D03*
X-6800Y12200D02*
D03*
Y13200D02*
D03*
X-6000Y1500D02*
D03*
X-7000D02*
D03*
X-8000D02*
D03*
X-9000Y10750D02*
D03*
X-8000D02*
D03*
X-7000D02*
D03*
X9000Y1500D02*
D03*
X8000D02*
D03*
X7000D02*
D03*
X6000Y10750D02*
D03*
X7000D02*
D03*
X8000D02*
D03*
D50*
X-6000D02*
D03*
X9000D02*
D03*
D51*
X-3000Y19500D02*
D03*
Y17500D02*
D03*
Y16500D02*
D03*
Y15500D02*
D03*
Y14500D02*
D03*
Y12500D02*
D03*
Y10500D02*
D03*
Y8500D02*
D03*
Y6500D02*
D03*
Y4500D02*
D03*
Y2500D02*
D03*
Y5500D02*
D03*
Y3500D02*
D03*
Y500D02*
D03*
Y7500D02*
D03*
Y9500D02*
D03*
Y11500D02*
D03*
Y13500D02*
D03*
Y18500D02*
D03*
X3000Y1500D02*
D03*
Y10500D02*
D03*
Y12500D02*
D03*
Y16500D02*
D03*
Y14500D02*
D03*
Y17500D02*
D03*
Y15500D02*
D03*
Y13500D02*
D03*
Y11500D02*
D03*
Y9500D02*
D03*
Y5500D02*
D03*
Y4500D02*
D03*
Y3500D02*
D03*
Y2500D02*
D03*
D52*
Y8500D02*
D03*
D53*
Y7500D02*
D03*
D54*
Y500D02*
D03*
D55*
X10971Y19790D02*
D03*
X13181Y0D02*
D03*
X-13179D02*
D03*
X-11014Y19790D02*
D03*
D57*
X5559Y2800D02*
D03*
X7441D02*
D03*
X-9441D02*
D03*
X-7559D02*
D03*
D58*
X7642Y4400D02*
D03*
X5358D02*
D03*
X-7358Y4300D02*
D03*
X-9642D02*
D03*
D59*
X5108Y13692D02*
D03*
D60*
X4724Y13112D02*
D03*
X4980D02*
D03*
X5236D02*
D03*
X5492D02*
D03*
Y14273D02*
D03*
X5236D02*
D03*
X4980D02*
D03*
X4724D02*
D03*
D61*
X-1234Y9364D02*
D03*
Y9718D02*
D03*
D62*
X-30Y8376D02*
D03*
X325D02*
D03*
D63*
X1112Y8510D02*
D03*
X1427D02*
D03*
X-11024Y13199D02*
D03*
X-10709D02*
D03*
D64*
X-8602Y6919D02*
D03*
X-8228D02*
D03*
X-7854D02*
D03*
Y5837D02*
D03*
X-8602D02*
D03*
X6289Y6919D02*
D03*
X6663D02*
D03*
X7037D02*
D03*
Y5837D02*
D03*
X6289D02*
D03*
D65*
X620Y10155D02*
D03*
Y9997D02*
D03*
Y9840D02*
D03*
Y9682D02*
D03*
Y9525D02*
D03*
Y9367D02*
D03*
X-522D02*
D03*
Y9525D02*
D03*
Y9682D02*
D03*
Y9840D02*
D03*
Y9997D02*
D03*
Y10155D02*
D03*
D66*
X443Y9190D02*
D03*
X285D02*
D03*
X128D02*
D03*
X-30D02*
D03*
X-187D02*
D03*
X-344D02*
D03*
Y10332D02*
D03*
X-187D02*
D03*
X-30D02*
D03*
X128D02*
D03*
X285D02*
D03*
X443D02*
D03*
D67*
X49Y9761D02*
D03*
D68*
X7717Y15502D02*
D03*
X6457D02*
D03*
D69*
X-9823Y15974D02*
D03*
Y14793D02*
D03*
D70*
X6726Y19252D02*
D03*
D71*
X5821Y16968D02*
D03*
X6726D02*
D03*
X7632D02*
D03*
D72*
X1575Y17972D02*
D03*
Y19232D02*
D03*
D73*
X-4246Y492D02*
D03*
X-10683D02*
D03*
X10683D02*
D03*
X4246D02*
D03*
D74*
X-5250Y-650D02*
D03*
X-5742D02*
D03*
X-6234D02*
D03*
X-6726D02*
D03*
X-7218D02*
D03*
X-7711D02*
D03*
X-8203D02*
D03*
X-8695D02*
D03*
X-9187D02*
D03*
X-9679D02*
D03*
X9679D02*
D03*
X9187D02*
D03*
X8695D02*
D03*
X8203D02*
D03*
X7711D02*
D03*
X7218D02*
D03*
X6726D02*
D03*
X6234D02*
D03*
X5742D02*
D03*
X5250D02*
D03*
M02*
