G04*
G04 #@! TF.GenerationSoftware,Altium Limited,Altium NEXUS,1.1.9 (86)*
G04*
G04 Layer_Color=16711935*
%FSLAX24Y24*%
%MOIN*%
G70*
G01*
G75*
%ADD97C,0.0039*%
D97*
X5069Y13929D02*
G03*
X5069Y13929I-197J0D01*
G01*
X502Y10017D02*
G03*
X502Y10017I-197J0D01*
G01*
X-7707Y8612D02*
X-7293D01*
X-7707Y8396D02*
X-7293D01*
X-7707D02*
Y8612D01*
X-7293Y8396D02*
Y8612D01*
X7293Y8396D02*
X7707D01*
X7293Y8612D02*
X7707D01*
Y8396D02*
Y8612D01*
X7293Y8396D02*
Y8612D01*
Y6663D02*
X7707D01*
X7293Y6880D02*
X7707D01*
Y6663D02*
Y6880D01*
X7293Y6663D02*
Y6880D01*
X-7707Y6880D02*
X-7293D01*
X-7707Y6663D02*
X-7293D01*
X-7707D02*
Y6880D01*
X-7293Y6663D02*
Y6880D01*
X7569Y16270D02*
X7785D01*
X7569Y15856D02*
X7785D01*
Y16270D01*
X7569Y15856D02*
Y16270D01*
X7780Y3731D02*
Y5069D01*
X5220Y3731D02*
Y5069D01*
X7780D01*
X5220Y3731D02*
X7780D01*
X-7220Y3631D02*
Y4969D01*
X-9780Y3631D02*
Y4969D01*
X-7220D01*
X-9780Y3631D02*
X-7220D01*
X5108Y6525D02*
X5325D01*
X5108Y6938D02*
X5325D01*
Y6525D02*
Y6938D01*
X5108Y6525D02*
Y6938D01*
X-6417Y7215D02*
X-6201D01*
X-6417Y7628D02*
X-6201D01*
Y7215D02*
Y7628D01*
X-6417Y7215D02*
Y7628D01*
X817Y16181D02*
Y16594D01*
X600Y16181D02*
Y16594D01*
X817D01*
X600Y16181D02*
X817D01*
X1752D02*
Y16594D01*
X1535Y16181D02*
Y16594D01*
X1752D01*
X1535Y16181D02*
X1752D01*
X4498Y14303D02*
X5719D01*
X4498Y13082D02*
X5719D01*
X4498D02*
Y14303D01*
X5719Y13082D02*
Y14303D01*
X5100Y14911D02*
X5514D01*
X5100Y14695D02*
X5514D01*
Y14911D01*
X5100Y14695D02*
Y14911D01*
X-1116Y9325D02*
Y9758D01*
X-1352Y9325D02*
Y9758D01*
Y9325D02*
X-1116D01*
X-1352Y9758D02*
X-1116D01*
X-69Y8258D02*
X364D01*
X-69Y8494D02*
X364D01*
X-69Y8258D02*
Y8494D01*
X364Y8258D02*
Y8494D01*
X1053Y8392D02*
Y8628D01*
X1486Y8392D02*
Y8628D01*
X1053Y8392D02*
X1486D01*
X1053Y8628D02*
X1486D01*
X5841Y18209D02*
Y18622D01*
X6057Y18209D02*
Y18622D01*
X5841Y18209D02*
X6057D01*
X5841Y18622D02*
X6057D01*
X7746Y18061D02*
X8159D01*
X7746Y18278D02*
X8159D01*
Y18061D02*
Y18278D01*
X7746Y18061D02*
Y18278D01*
X-5581Y7215D02*
Y7628D01*
X-5364Y7215D02*
Y7628D01*
X-5581D02*
X-5364D01*
X-5581Y7215D02*
X-5364D01*
X4291Y6515D02*
Y6929D01*
X4508Y6515D02*
Y6929D01*
X4291D02*
X4508D01*
X4291Y6515D02*
X4508D01*
X-8770Y6722D02*
X-7687D01*
X-8770Y6033D02*
X-7687D01*
X-8770D02*
Y6722D01*
X-7687Y6033D02*
Y6722D01*
X6121D02*
X7204D01*
X6121Y6033D02*
X7204D01*
X6121D02*
Y6722D01*
X7204Y6033D02*
Y6722D01*
X659Y9151D02*
Y10371D01*
X-561Y9151D02*
Y10371D01*
X659D01*
X-561Y9151D02*
X659D01*
X6964Y19026D02*
Y19242D01*
X6550Y19026D02*
Y19242D01*
Y19026D02*
X6964D01*
X6550Y19242D02*
X6964D01*
X6983Y18533D02*
Y18750D01*
X7396Y18533D02*
Y18750D01*
X6983D02*
X7396D01*
X6983Y18533D02*
X7396D01*
X7707Y17618D02*
Y17835D01*
X8120Y17618D02*
Y17835D01*
X7707D02*
X8120D01*
X7707Y17618D02*
X8120D01*
X7096Y15856D02*
X7313D01*
X7096Y16270D02*
X7313D01*
X7096Y15856D02*
Y16270D01*
X7313Y15856D02*
Y16270D01*
X8120Y17175D02*
Y17392D01*
X7707Y17175D02*
Y17392D01*
Y17175D02*
X8120D01*
X7707Y17392D02*
X8120D01*
X4094Y13553D02*
X4311D01*
X4094Y13967D02*
X4311D01*
Y13553D02*
Y13967D01*
X4094Y13553D02*
Y13967D01*
X6417Y15856D02*
X7756D01*
X6417Y15148D02*
X7756D01*
Y15856D01*
X6417Y15148D02*
Y15856D01*
X-11083Y13081D02*
X-10650D01*
X-11083Y13317D02*
X-10650D01*
X-11083Y13081D02*
Y13317D01*
X-10650Y13081D02*
Y13317D01*
X-10374Y16053D02*
X-9272D01*
X-10374Y14715D02*
X-9272D01*
X-10374D02*
Y16053D01*
X-9272Y14715D02*
Y16053D01*
X5408Y17382D02*
Y18839D01*
X8045Y17382D02*
Y18839D01*
X5408D02*
X8045D01*
X5408Y17382D02*
X8045D01*
X1929Y17933D02*
Y19272D01*
X1220Y17933D02*
Y19272D01*
Y17933D02*
X1929D01*
X1220Y19272D02*
X1929D01*
X13760Y5817D02*
X14567Y5010D01*
Y1683D02*
Y5010D01*
X10433Y1683D02*
X14567D01*
X10433D02*
Y5010D01*
X11240Y5817D01*
X13760D01*
X-11240D02*
X-10433Y5010D01*
Y1683D02*
Y5010D01*
X-14567Y1683D02*
X-10433D01*
X-14567D02*
Y5010D01*
X-13760Y5817D01*
X-11240D01*
M02*
