G04*
G04 #@! TF.GenerationSoftware,Altium Limited,Altium NEXUS,1.1.9 (86)*
G04*
G04 Layer_Color=128*
%FSLAX24Y24*%
%MOIN*%
G70*
G01*
G75*
%ADD101C,0.0020*%
D101*
X-11388Y11051D02*
X-10994D01*
X-11191Y10854D02*
Y11248D01*
X-11388Y10051D02*
X-10994D01*
X-11191Y9854D02*
Y10248D01*
X-11407Y8817D02*
X-11014D01*
X-11211Y8620D02*
Y9014D01*
X-11407Y7817D02*
X-11014D01*
X-11211Y7620D02*
Y8014D01*
X11270Y8817D02*
X11663D01*
X11467Y8620D02*
Y9014D01*
X11270Y7817D02*
X11663D01*
X11467Y7620D02*
Y8014D01*
X11270Y11051D02*
X11663D01*
X11467Y10854D02*
Y11248D01*
X11270Y10051D02*
X11663D01*
X11467Y9854D02*
Y10248D01*
X3848Y19449D02*
X5089D01*
X4469Y18829D02*
Y20069D01*
X7018Y13150D02*
X7648D01*
X7333Y12835D02*
Y13465D01*
X8868Y13150D02*
X9498D01*
X9183Y12835D02*
Y13465D01*
X10719Y13150D02*
X11348D01*
X11033Y12835D02*
Y13465D01*
X3848Y16782D02*
X5089D01*
X4469Y16161D02*
Y17402D01*
X9634Y18280D02*
X9831D01*
X9732Y18181D02*
Y18378D01*
X10134Y17280D02*
X10331D01*
X10232Y17181D02*
Y17378D01*
X10634Y18280D02*
X10831D01*
X10732Y18181D02*
Y18378D01*
X9134Y17280D02*
X9331D01*
X9232Y17181D02*
Y17378D01*
X8634Y18280D02*
X8831D01*
X8732Y18181D02*
Y18378D01*
X10634Y15280D02*
X10831D01*
X10732Y15181D02*
Y15378D01*
X10134Y16280D02*
X10331D01*
X10232Y16181D02*
Y16378D01*
X8634Y15280D02*
X8831D01*
X8732Y15181D02*
Y15378D01*
X9134Y16280D02*
X9331D01*
X9232Y16181D02*
Y16378D01*
X9634Y15280D02*
X9831D01*
X9732Y15181D02*
Y15378D01*
X-10095Y12200D02*
X-9505D01*
X-9800Y11905D02*
Y12495D01*
X-10095Y13200D02*
X-9505D01*
X-9800Y12905D02*
Y13495D01*
X-8977Y12200D02*
X-8623D01*
X-8800Y12023D02*
Y12377D01*
X-8977Y13200D02*
X-8623D01*
X-8800Y13023D02*
Y13377D01*
X-7977Y12200D02*
X-7623D01*
X-7800Y12023D02*
Y12377D01*
X-7977Y13200D02*
X-7623D01*
X-7800Y13023D02*
Y13377D01*
X-6977Y12200D02*
X-6623D01*
X-6800Y12023D02*
Y12377D01*
X-6977Y13200D02*
X-6623D01*
X-6800Y13023D02*
Y13377D01*
X-6177Y1500D02*
X-5823D01*
X-6000Y1323D02*
Y1677D01*
X-7177Y1500D02*
X-6823D01*
X-7000Y1323D02*
Y1677D01*
X-8177Y1500D02*
X-7823D01*
X-8000Y1323D02*
Y1677D01*
X-9295Y1500D02*
X-8705D01*
X-9000Y1205D02*
Y1795D01*
X-9177Y10750D02*
X-8823D01*
X-9000Y10573D02*
Y10927D01*
X-8177Y10750D02*
X-7823D01*
X-8000Y10573D02*
Y10927D01*
X-7177Y10750D02*
X-6823D01*
X-7000Y10573D02*
Y10927D01*
X-6177Y10750D02*
X-5823D01*
X-6000Y10573D02*
Y10927D01*
X8823Y1500D02*
X9177D01*
X9000Y1323D02*
Y1677D01*
X7823Y1500D02*
X8177D01*
X8000Y1323D02*
Y1677D01*
X6823Y1500D02*
X7177D01*
X7000Y1323D02*
Y1677D01*
X5705Y1500D02*
X6295D01*
X6000Y1205D02*
Y1795D01*
X5823Y10750D02*
X6177D01*
X6000Y10573D02*
Y10927D01*
X6823Y10750D02*
X7177D01*
X7000Y10573D02*
Y10927D01*
X7823Y10750D02*
X8177D01*
X8000Y10573D02*
Y10927D01*
X8823Y10750D02*
X9177D01*
X9000Y10573D02*
Y10927D01*
X-3197Y19500D02*
X-2803D01*
X-3000Y19303D02*
Y19697D01*
X-3197Y17500D02*
X-2803D01*
X-3000Y17303D02*
Y17697D01*
X-3197Y16500D02*
X-2803D01*
X-3000Y16303D02*
Y16697D01*
X-3197Y15500D02*
X-2803D01*
X-3000Y15303D02*
Y15697D01*
X-3197Y14500D02*
X-2803D01*
X-3000Y14303D02*
Y14697D01*
X-3197Y12500D02*
X-2803D01*
X-3000Y12303D02*
Y12697D01*
X-3197Y10500D02*
X-2803D01*
X-3000Y10303D02*
Y10697D01*
X-3197Y8500D02*
X-2803D01*
X-3000Y8303D02*
Y8697D01*
X-3197Y6500D02*
X-2803D01*
X-3000Y6303D02*
Y6697D01*
X-3197Y4500D02*
X-2803D01*
X-3000Y4303D02*
Y4697D01*
X-3197Y2500D02*
X-2803D01*
X-3000Y2303D02*
Y2697D01*
X-3197Y5500D02*
X-2803D01*
X-3000Y5303D02*
Y5697D01*
X-3197Y3500D02*
X-2803D01*
X-3000Y3303D02*
Y3697D01*
X-3295Y1500D02*
X-2705D01*
X-3000Y1205D02*
Y1795D01*
X-3197Y500D02*
X-2803D01*
X-3000Y303D02*
Y697D01*
X-3197Y7500D02*
X-2803D01*
X-3000Y7303D02*
Y7697D01*
X-3197Y9500D02*
X-2803D01*
X-3000Y9303D02*
Y9697D01*
X-3197Y11500D02*
X-2803D01*
X-3000Y11303D02*
Y11697D01*
X-3197Y13500D02*
X-2803D01*
X-3000Y13303D02*
Y13697D01*
X-3197Y18500D02*
X-2803D01*
X-3000Y18303D02*
Y18697D01*
X2803Y1500D02*
X3197D01*
X3000Y1303D02*
Y1697D01*
X2705Y6500D02*
X3295D01*
X3000Y6205D02*
Y6795D01*
X2705Y8500D02*
X3295D01*
X3000Y8205D02*
Y8795D01*
X2803Y10500D02*
X3197D01*
X3000Y10303D02*
Y10697D01*
X2803Y12500D02*
X3197D01*
X3000Y12303D02*
Y12697D01*
X2705Y19500D02*
X3295D01*
X3000Y19205D02*
Y19795D01*
X2705Y18500D02*
X3295D01*
X3000Y18205D02*
Y18795D01*
X2803Y16500D02*
X3197D01*
X3000Y16303D02*
Y16697D01*
X2803Y14500D02*
X3197D01*
X3000Y14303D02*
Y14697D01*
X2803Y17500D02*
X3197D01*
X3000Y17303D02*
Y17697D01*
X2803Y15500D02*
X3197D01*
X3000Y15303D02*
Y15697D01*
X2803Y13500D02*
X3197D01*
X3000Y13303D02*
Y13697D01*
X2803Y11500D02*
X3197D01*
X3000Y11303D02*
Y11697D01*
X2705Y9500D02*
X3295D01*
X3000Y9205D02*
Y9795D01*
X2705Y7500D02*
X3295D01*
X3000Y7205D02*
Y7795D01*
X2803Y5500D02*
X3197D01*
X3000Y5303D02*
Y5697D01*
X2803Y4500D02*
X3197D01*
X3000Y4303D02*
Y4697D01*
X2803Y3500D02*
X3197D01*
X3000Y3303D02*
Y3697D01*
X2803Y2500D02*
X3197D01*
X3000Y2303D02*
Y2697D01*
X2803Y500D02*
X3197D01*
X3000Y303D02*
Y697D01*
X10577Y19790D02*
X11364D01*
X10971Y19397D02*
Y20184D01*
X12787Y0D02*
X13575D01*
X13181Y-394D02*
Y394D01*
X-13573Y0D02*
X-12785D01*
X-13179Y-394D02*
Y394D01*
X-11407Y19790D02*
X-10620D01*
X-11014Y19397D02*
Y20184D01*
X8061Y16378D02*
X8258D01*
X8159Y16280D02*
Y16476D01*
X9634Y17795D02*
X9831D01*
X9732Y17697D02*
Y17894D01*
X10886Y16270D02*
X11083D01*
X10984Y16171D02*
Y16368D01*
X8593Y17659D02*
X8789D01*
X8691Y17560D02*
Y17757D01*
X7884Y18620D02*
X8081D01*
X7982Y18522D02*
Y18718D01*
X-447Y18760D02*
X-93D01*
X-270Y18583D02*
Y18937D01*
X5736Y20354D02*
X6091D01*
X5914Y20177D02*
Y20531D01*
X-955Y8455D02*
X-600D01*
X-778Y8278D02*
Y8632D01*
X-1693Y7638D02*
X-1339D01*
X-1516Y7461D02*
Y7815D01*
X1004Y13150D02*
X1358D01*
X1181Y12972D02*
Y13327D01*
X5453Y19252D02*
X5807D01*
X5630Y19075D02*
Y19429D01*
X5541Y15502D02*
X5896D01*
X5719Y15325D02*
Y15679D01*
X-11988Y177D02*
X-11634D01*
X-11811Y0D02*
Y354D01*
X-6053Y2579D02*
X-5699D01*
X-5876Y2402D02*
Y2756D01*
X-14390Y1004D02*
X-14035D01*
X-14213Y827D02*
Y1181D01*
X-12795Y3000D02*
X-12205D01*
X-12500Y2705D02*
Y3295D01*
X-12795Y4200D02*
X-12205D01*
X-12500Y3905D02*
Y4495D01*
X-6877Y3900D02*
X-6523D01*
X-6700Y3723D02*
Y4077D01*
X-6877Y4700D02*
X-6523D01*
X-6700Y4523D02*
Y4877D01*
X12205Y4300D02*
X12795D01*
X12500Y4005D02*
Y4595D01*
X12205Y3200D02*
X12795D01*
X12500Y2905D02*
Y3495D01*
X8123Y4000D02*
X8477D01*
X8300Y3823D02*
Y4177D01*
X8123Y4800D02*
X8477D01*
X8300Y4623D02*
Y4977D01*
M02*
